<?xml version="1.0" encoding="iso-8859-1"?>
<!-- Generator: Adobe Illustrator 19.0.0, SVG Export Plug-In . SVG Version: 6.00 Build 0)  -->
<svg version="1.1" id="Layer_1" xmlns="http://www.w3.org/2000/svg" xmlns:xlink="http://www.w3.org/1999/xlink" x="0px" y="0px"
	 viewBox="0 0 512 512" style="enable-background:new 0 0 512 512;" xml:space="preserve">
<g>
	<g>
		<path d="M345.711,141.045c-7.332,0-14.695,0.514-21.953,1.471c-11.125-8.366-24.539-13.843-39.119-15.306
			c-7.582-52.765-88.882-87.756-92.51-89.291c-2.78-1.177-5.977-0.781-8.387,1.037c-2.41,1.818-3.667,4.785-3.299,7.781
			c6.174,50.23-89.361,123.96-129.386,149.991H39.282c-4.67,0-8.455,3.786-8.455,8.455v20.636h-1.738
			c-4.67,0-8.455,3.786-8.455,8.455s3.786,8.455,8.455,8.455h1.738v12.18H8.455c-2.405,0-4.697,1.025-6.3,2.816
			c-1.604,1.793-2.369,4.183-2.104,6.573l16.976,152.784c3.653,32.876,31.35,57.666,64.428,57.666h237.309
			c4.938,0,9.753-0.564,14.389-1.613c4.228,0.317,8.445,0.486,12.558,0.486c91.691,0,166.289-74.596,166.289-166.289
			S437.403,141.045,345.711,141.045z M129.97,157.093c41.171-37.099,63.695-69.992,67.189-98.032
			c8.182,4.204,19.66,10.65,31.009,18.853c16.76,12.114,36.441,30.433,39.673,51.288l-32.959,10.325l-49.864,15.619
			c-4.457,1.396-6.938,6.14-5.541,10.596c1.134,3.621,4.481,5.938,8.084,5.93c0.832-0.001,1.678-0.127,2.512-0.389l87.935-27.545
			c24.599,0.494,45.689,15.516,55.045,36.816c0.091,0.21,0.186,0.418,0.275,0.629c0.264,0.62,0.515,1.246,0.76,1.876
			c0.132,0.342,0.258,0.685,0.384,1.029c0.206,0.561,0.409,1.124,0.6,1.693c0.163,0.492,0.312,0.989,0.463,1.485
			c0.143,0.468,0.293,0.932,0.425,1.404c0.257,0.926,0.493,1.858,0.707,2.796c0.08,0.348,0.145,0.702,0.22,1.053
			c0.142,0.676,0.279,1.355,0.398,2.037c0.067,0.378,0.125,0.759,0.184,1.139c0.053,0.344,0.096,0.69,0.143,1.035H108.83
			l47.503-14.88c4.457-1.396,6.937-6.14,5.541-10.596c-1.133-3.621-4.477-5.936-8.083-5.929c-0.832,0.001-1.679,0.126-2.514,0.388
			l-50.383,15.782C110.097,174.262,120.052,166.029,129.97,157.093z M47.737,213.64h5.798c0.006,0,0.01,0.001,0.016,0.001
			c0.005,0,0.01-0.001,0.015-0.001h293.103h5.813v12.18H47.737V213.64z M330.394,456.404c-0.051,0.012-0.098,0.03-0.148,0.044
			c-3.685,0.905-7.531,1.391-11.483,1.391H81.455c-24.448,0-44.92-18.323-47.621-42.623L17.901,271.822h21.38
			c4.67,0,8.455-3.786,8.455-8.455v-20.636h304.746v12.18H73.104c-4.67,0-8.455,3.786-8.455,8.455c0,4.67,3.786,8.455,8.455,8.455
			h287.834h21.38l-15.933,143.395c-0.077,0.687-0.171,1.366-0.275,2.043c-0.046,0.298-0.1,0.593-0.152,0.889
			c-0.061,0.349-0.123,0.699-0.192,1.045c-0.081,0.413-0.168,0.823-0.26,1.231c-0.039,0.177-0.081,0.353-0.122,0.529
			C361.289,438.164,347.821,452.053,330.394,456.404z M364.89,455.484c8.078-8.176,14.009-18.518,16.841-30.18
			c0.023-0.09,0.042-0.183,0.063-0.273c0.185-0.773,0.362-1.55,0.519-2.336c0.073-0.363,0.133-0.729,0.2-1.094
			c0.1-0.549,0.206-1.095,0.292-1.648c0.15-0.951,0.28-1.907,0.387-2.87L400.167,264.3c0.265-2.39-0.499-4.78-2.104-6.573
			c-1.604-1.791-3.895-2.816-6.3-2.816h-22.372v-12.189c4.587-0.095,8.279-3.836,8.279-8.446s-3.691-8.352-8.279-8.446v-20.645
			c0-4.67-3.786-8.455-8.455-8.455h-6.266c-0.114-1.062-0.257-2.117-0.414-3.169c-0.038-0.257-0.082-0.513-0.123-0.77
			c-0.161-1.016-0.342-2.027-0.543-3.033c-0.033-0.162-0.061-0.326-0.095-0.487c-0.245-1.183-0.518-2.357-0.815-3.524
			c-0.029-0.113-0.06-0.224-0.089-0.337c-2.568-9.877-7.036-19.153-13.188-27.32c2.103-0.088,4.206-0.132,6.307-0.132
			c82.366,0,149.378,67.01,149.378,149.378C495.089,383.206,438.235,446.046,364.89,455.484z"/>
	</g>
</g>
<g>
</g>
<g>
</g>
<g>
</g>
<g>
</g>
<g>
</g>
<g>
</g>
<g>
</g>
<g>
</g>
<g>
</g>
<g>
</g>
<g>
</g>
<g>
</g>
<g>
</g>
<g>
</g>
<g>
</g>
</svg>
