<?xml version="1.0"?>
<svg xmlns="http://www.w3.org/2000/svg" xmlns:xlink="http://www.w3.org/1999/xlink" version="1.1" id="Capa_1" x="0px" y="0px" viewBox="0 0 512 512" style="enable-background:new 0 0 512 512;" xml:space="preserve" width="512px" height="512px" class=""><g><g>
	<g>
		<path d="M405.333,128h-10.667V96c0-5.891-4.776-10.667-10.667-10.667h-42.667c-5.891,0-10.667,4.776-10.667,10.667v32h-21.333    c-1.446,0.002-2.88,0.055-4.306,0.137l4.237-30.7l-0.037-0.005c0.063-0.469,0.107-0.945,0.107-1.432V10.667    C309.333,4.776,304.558,0,298.667,0h-256C36.776,0,32,4.776,32,10.667V96c0,0.496,0.046,0.981,0.111,1.459l-0.015,0.002    l42.667,309.333c0.73,5.278,5.243,9.208,10.571,9.205H96v10.667c-5.891,0-10.667,4.776-10.667,10.667v64    C85.333,507.224,90.109,512,96,512h192h10.667h128c29.441-0.035,53.298-23.893,53.333-53.333v-256    C479.953,161.449,446.551,128.047,405.333,128z M352,106.667h21.333V128H352V106.667z M94.635,394.666l-7.357-53.333h115.388V320    H84.336L54.91,106.667h190.423V85.333h-192v-64h21.333v32H96v-32h21.333v32h21.333v-32H288v64h-21.333v21.333h19.788    l-3.618,26.216c-28.132,10.709-48.134,37.901-48.17,69.784v192H94.635z M256,213.333h96v192h-96V213.333z M234.666,416v10.667    H117.333V416H234.666z M106.667,490.667V448h128v10.667c0.014,12.009,3.995,23.087,10.699,32H106.667z M458.667,458.667    c0,17.673-14.327,32-32,32h-128H288c-17.673,0-32-14.327-32-32v-32h106.667c5.891,0,10.667-4.776,10.667-10.667V202.667    c0-5.891-4.776-10.667-10.667-10.667H257.081c4.964-24.328,26.465-42.636,52.253-42.667h96    c29.441,0.035,53.298,23.893,53.333,53.333V458.667z" data-original="#000000" class="active-path" data-old_color="#ffffff" fill="#ffffff"/>
	</g>
</g><g>
	<g>
		<rect x="405.33" y="192" width="21.333" height="21.333" data-original="#000000" class="active-path" data-old_color="#ffffff" fill="#ffffff"/>
	</g>
</g><g>
	<g>
		<rect x="405.33" y="234.67" width="21.333" height="74.67" data-original="#000000" class="active-path" data-old_color="#ffffff" fill="#ffffff"/>
	</g>
</g></g> </svg>
