<svg xmlns="http://www.w3.org/2000/svg" xmlns:xlink="http://www.w3.org/1999/xlink" xmlns:fi="http://pattern.flaticon.com/" x="0" y="0" width="700" height="350" viewBox="0 0 700 350"><rect x="0px" y="0px" width="100%" height="100%" opacity="1" fill="#ffffff"/><defs><g transform="matrix(0.08698715269565582 0 0 0.08698715269565582 129.42294439673424 73.50747211928547)" id="L1_0"><path d="M168.104,146.719l-89.552,13.826c-1.337-1.22-2.738-2.382-4.244-3.398c-16.582-11.216-40.759-8.081-57.486,7.462    c-9.284,8.646-15.151,19.897-16.518,31.697c-1.407,12.203,2.096,23.529,9.879,31.902c1.938,2.09,4.087,3.924,6.422,5.5    c0,0.023,0,0,0,0.023c12.699,8.57,29.817,8.711,44.659,1.366c0.631,0.759,1.337,1.483,2.213,2.056    c4.904,3.339,11.561,2.031,14.889-2.861c2.592-3.83,2.341-8.723-0.228-12.25c6.936-7.94,11.332-17.527,12.471-27.493    c0.73-6.265,0.129-12.29-1.652-17.813l87.923-7.117L168.104,146.719z M77.864,193.065c-1.004,8.787-5.453,17.206-12.5,23.78    c-12.395,11.491-29.882,14.141-41.559,6.224c-1.523-1.028-2.954-2.254-4.209-3.608c-5.19-5.582-7.497-13.265-6.533-21.685    c1.022-8.787,5.465-17.218,12.512-23.757c12.383-11.525,29.881-14.159,41.564-6.242c1.529,1.028,2.948,2.248,4.204,3.608    C76.51,176.974,78.827,184.664,77.864,193.065z"/><path d="M222.135,165.934 374.638,67.729 380.628,57.278 270.536,107.618 221.072,166.033z"/><path d="M123.656,333.827c5.815-1.086,11.531-3.188,16.909-6.235c19.839-11.315,30.051-33.466,24.3-52.64    c-0.514-1.752-1.208-3.422-1.985-5.057l48.676-103.716l135.7-160.292l-14.409,8.454L177.37,149.34l8.32,21.737l-39.037,81.593    c-3.818-2.09-8.051-3.596-12.629-4.46c-11.683-2.242-24.177,0.023-35.189,6.294c-19.828,11.291-30.051,33.455-24.3,52.629    c0.812,2.709,1.938,5.324,3.34,7.766c3.152,5.522,7.613,10.03,12.996,13.357c10.615,13.254,1.658,32.848,1.314,37.613    c-0.356,4.857,8.361,10.637,10.323,8.359C104.383,372.092,108.411,339.385,123.656,333.827z M195.242,158.571    c-2.581-2.68-2.487-6.913,0.187-9.505c2.674-2.575,6.937-2.499,9.494,0.193c2.58,2.674,2.487,6.93-0.176,9.493    C202.073,161.321,197.812,161.239,195.242,158.571z M134.194,316.452c-8.361,4.752-17.731,6.469-26.414,4.811    c-8.314-1.576-14.97-6.084-18.742-12.705c-0.929-1.611-1.658-3.328-2.184-5.103c-4.058-13.511,3.667-29.415,18.362-37.799    c8.36-4.765,17.737-6.469,26.425-4.834c8.303,1.588,14.977,6.106,18.742,12.716c0.905,1.6,1.646,3.328,2.184,5.104    C156.614,292.139,148.89,308.043,134.194,316.452z"/></g><g transform="matrix(0.053693810421489956 0.06608468564889353 -0.06608468564889353 0.053693810421489956 271.0361235925491 212.78535614420286)" id="L1_1"><path d="M301.17,159.702c22.887-15.793,37.903-42.183,37.903-72.1C339.074,39.223,299.851,0,251.472,0    c-9.342,0-18.332,1.495-26.787,4.221c-58.841,0-170.065,0-180.849,0c-14.749,0-12.209,80.018,0,80.018c6.381,0,65.356,0,120.204,0    c-0.035,1.138-0.164,2.236-0.164,3.363c0,43.497,31.721,79.48,73.28,86.34v18.952h-10.112v18.952h10.112v11.373h-10.112v18.953    h10.112v37.238c-6.247,6.551-10.112,15.367-10.112,25.094c0,20.236,16.604,36.643,37.074,36.643c5.652,0,11-1.296,15.787-3.538    l23.553,35.171l9.786-6.562l-23.588-35.218c7.076-6.69,11.502-16.079,11.502-26.507c0-4.273-0.794-8.385-2.148-12.215h2.148    V159.702H301.17z M251.472,55.589c6.574,0,12.67,1.985,17.738,5.372h-35.476C238.815,57.574,244.91,55.589,251.472,55.589z     M230.01,63.909h42.937c2.242,2.038,4.192,4.367,5.78,6.948h-54.485C225.83,68.276,227.768,65.946,230.01,63.909z M222.619,73.811    h57.696c1.121,2.347,1.997,4.846,2.534,7.473h-62.765C220.622,78.657,221.498,76.158,222.619,73.811z M251.472,119.608    c-6.492,0-12.518-1.938-17.562-5.26h35.137C263.991,117.67,257.965,119.608,251.472,119.608z M272.83,111.394h-42.703    c-2.137-1.909-4.017-4.11-5.569-6.527h53.854C276.835,107.295,274.956,109.484,272.83,111.394z M280.082,101.923h-57.206    c-1.074-2.166-1.927-4.449-2.499-6.849h62.192C282.008,97.475,281.156,99.769,280.082,101.923z M283.129,92.132h-63.313    c-0.222-1.483-0.351-2.989-0.351-4.531c0-1.139,0.059-2.248,0.176-3.363h63.663c0.105,1.115,0.188,2.236,0.188,3.363    C283.492,89.143,283.328,90.649,283.129,92.132z"/><path d="M147.027,235.854 140.283,235.854 140.283,163.421 133.966,163.421 133.966,235.854 128.91,235.854     128.91,163.421 122.598,163.421 122.598,235.854 115.855,235.854 115.855,163.421 109.526,163.421 109.526,235.854     103.214,235.854 103.214,163.421 96.903,163.421 96.903,235.854 90.159,235.854 90.159,163.421 83.842,163.421 83.842,235.854     75.843,235.854 75.843,163.421 69.532,163.421 69.532,235.854 62.788,235.854 62.788,163.421 56.471,163.421 56.471,235.854     56.471,238.4 56.471,275.767 66.578,323.455 143.238,323.455 153.338,275.767 153.338,238.4 153.338,235.854 153.338,163.421     147.027,163.421z"/></g><g transform="matrix(0.05342017961617048 0.033739063281982624 -0.033739063281982624 0.05342017961617048 309.01053555135485 112.03923869496288)" id="L1_2"><path d="M496.203,177.303c4.737-4.697,7.402-11.091,7.402-17.762c-0.075-13.907-11.343-25.155-25.25-25.205h-0.086     c-6.656,0.009-13.031,2.687-17.697,7.434l-28.542,28.538c-6.804-1.59-13.766-2.407-20.753-2.437v-81.71l32.467-56.818     c0.083-0.145,0.078-0.31,0.152-0.458c0.231-0.513,0.408-1.047,0.529-1.596c0.164-0.531,0.275-1.076,0.329-1.629     c0.01-0.168,0.097-0.31,0.097-0.481c-0.051-0.538-0.135-1.072-0.252-1.599c-0.05-0.255-0.046-0.509-0.119-0.758     C440.633,0.725,384.341,0,377.703,0c-6.638,0-62.93,0.725-66.777,22.823c-0.073,0.249-0.069,0.504-0.119,0.758     c-0.117,0.527-0.201,1.061-0.252,1.599c0,0.171,0.087,0.313,0.097,0.481c0.054,0.553,0.164,1.099,0.329,1.629     c0.121,0.549,0.298,1.084,0.529,1.596c0.074,0.149,0.069,0.313,0.152,0.458l32.468,56.818v81.707h-33.574v-55.64     c6.056-8.779,9.01-19.327,8.393-29.975c0-23.5-25.43-44.525-28.332-46.844c-0.208-0.167-0.462-0.207-0.68-0.351     c-0.916-0.581-1.925-0.998-2.984-1.233c-2.125-0.379-4.314,0.06-6.129,1.227c-0.222,0.145-0.481,0.187-0.692,0.356     c-2.902,2.32-28.332,23.344-28.332,46.844c-0.616,10.647,2.338,21.195,8.393,29.974v55.641h-25.18V92.328     c-0.039-0.267-0.093-0.532-0.159-0.793c0.016-0.274,0.017-0.548,0.004-0.822l-8.738-44.427     c-1.884-7.553-8.715-12.82-16.499-12.72c-7.784,0.1-14.478,5.539-16.169,13.138l-8.644,44.008     c-0.013,0.274-0.012,0.548,0.004,0.822c-0.067,0.261-0.12,0.526-0.159,0.793v75.541h-16.787v-33.574     c-0.011-9.267-7.52-16.776-16.787-16.787V98.386c5.175-2.975,8.374-8.482,8.393-14.452V16.787     C159.463,7.52,151.953,0.011,142.687,0h-41.967c-9.267,0.011-16.776,7.52-16.787,16.787v67.148     c0.02,5.97,3.218,11.477,8.393,14.452v19.122c-9.267,0.011-16.776,7.52-16.787,16.787v35.156     c-43.778,8.093-75.528,46.3-75.471,90.82L0.24,486.426c-0.125,4.531,1.588,8.919,4.749,12.167     c3.161,3.248,7.501,5.08,12.034,5.079H486.58c4.491,0.001,8.795-1.797,11.95-4.994c3.155-3.196,4.897-7.524,4.837-12.015     l0.168-226.393c0.068-24.003-9.281-47.076-26.038-64.261L496.203,177.303z M472.482,153.598c1.537-1.576,3.643-2.468,5.844-2.475     h0.025c3.412-0.042,6.508,1.993,7.822,5.142s0.583,6.781-1.847,9.177l-19.604,19.604c-4.711-3.368-9.731-6.28-14.993-8.698     L472.482,153.598z M328.685,25.302c5.418-3.498,22.329-8.515,49.018-8.515s43.6,5.017,49.018,8.515v0l-28.707,50.239h-40.621     L328.685,25.302z M360.916,109.115V92.328h33.574v16.787H360.916z M394.49,125.902v41.967h-33.574v-41.967H394.49z      M268.588,82.254c0-10.239,9.622-21.948,16.787-28.979c7.165,7.031,16.787,18.74,16.787,28.979     c0.35,6.406-1.042,12.788-4.026,18.467h-25.523C269.63,95.041,268.239,88.66,268.588,82.254z M276.982,134.295v-16.787h16.787     v16.787H276.982z M293.768,151.082v16.787h-16.787v-16.787H293.768z M209.74,49.934l6.678,34h-13.21L209.74,49.934z      M201.441,100.721h16.787v67.148h-16.787V100.721z M100.719,16.787h41.967l0.008,67.148h-41.976V16.787z M92.326,134.295     c9.267-0.011,16.776-7.52,16.787-16.787v-16.787h25.18v16.787c0.011,9.267,7.52,16.776,16.787,16.787v33.574H92.395l-0.07,0.004     V134.295z M486.748,260.254l-0.168,226.631l-469.557-0.238l-0.168-226.394c-0.016-20.045,7.936-39.274,22.105-53.453     c14.168-14.179,33.392-22.146,53.436-22.145h318.811c20.045,0,39.268,7.966,53.436,22.145     C478.812,220.98,486.764,240.209,486.748,260.254z"/><path d="M315.784,235.082h-0.057c-14.483,0.031-28.296,6.107-38.106,16.762l-25.82,27.607l-25.84-27.631     c-9.809-10.642-23.613-16.708-38.086-16.738h-0.057c-14.447,0.04-28.22,6.114-37.992,16.754     c-20.63,22.567-20.628,57.148,0.004,79.713l95.844,102.32c1.587,1.694,3.805,2.656,6.127,2.656s4.54-0.961,6.127-2.656     l95.844-102.32c20.631-22.566,20.631-57.147,0-79.713C344.002,241.195,330.23,235.121,315.784,235.082z M341.539,320.057     L341.539,320.057l-0.013,0.017l-89.725,95.778l-89.738-95.795c-14.683-16.068-14.678-40.685,0.012-56.746     c6.616-7.237,15.953-11.385,25.758-11.442h0.037c9.832,0.046,19.2,4.19,25.848,11.434l31.951,34.164     c1.624,1.629,3.83,2.545,6.131,2.545s4.507-0.916,6.131-2.545l31.93-34.139c6.649-7.257,16.026-11.411,25.869-11.459h0.037     c9.805,0.057,19.14,4.205,25.754,11.443C356.216,279.371,356.223,303.989,341.539,320.057z"/><path d="M41.965,260.262c-2.226-0.001-4.362,0.884-5.936,2.458c-1.574,1.574-2.458,3.709-2.458,5.936V377.77     c0,4.636,3.758,8.393,8.393,8.393s8.393-3.758,8.393-8.393V268.656c0.001-2.226-0.884-4.361-2.458-5.936     C46.327,261.146,44.191,260.262,41.965,260.262z"/><path d="M41.965,402.951c-2.226-0.001-4.362,0.884-5.936,2.458c-1.574,1.574-2.458,3.709-2.458,5.936v33.574     c0,4.636,3.758,8.393,8.393,8.393s8.393-3.758,8.393-8.393v-33.574c0.001-2.226-0.884-4.362-2.458-5.936     C46.327,403.834,44.191,402.95,41.965,402.951z"/></g><g transform="matrix(0.0524874504151896 -0.013812486816087738 0.013812486816087738 0.0524874504151896 103.02130055856335 197.08988447147908)" id="L1_3"><g transform="matrix(1 0 0 1 1 1)"><g><path d="M366.021,44.036c-11.008-11.008-21.675-23.979-36.437-30.123     c-26.758-12.165-58.389-2.998-74.496,21.589c-16.107-24.587-47.738-33.754-74.496-21.589     c-14.763,6.144-25.429,19.115-36.437,30.123c-25.6,25.6-136.533,76.8-136.533,76.8c16.927,15.38,32.913,31.766,47.872,49.067     l88.661,118.955c13.752,4.568,28.456,5.48,42.667,2.645c22.457-4.868,45.303-7.723,68.267-8.533     c22.964,0.81,45.81,3.666,68.267,8.533c20.37,4.546,41.712,0.803,59.32-10.402c17.608-11.205,30.037-28.953,34.547-49.332     c8.533-42.667,85.333-110.933,85.333-110.933S391.621,69.636,366.021,44.036z M306.287,172.036h-102.4     c-42.667,0-102.4-34.133-102.4-34.133l0.256-2.219c11.246,1.329,22.554,2.07,33.877,2.219c42.667,0,76.8-25.6,119.467-25.6     s76.8,25.6,119.467,25.6c11.323-0.149,22.631-0.889,33.877-2.219l0.256,2.219C408.687,137.903,348.954,172.036,306.287,172.036z" fill="#f44335"/><path d="M502.554,120.836c0,0-76.8,68.267-85.333,110.933c-4.51,20.378-16.938,38.126-34.547,49.332     c-17.608,11.205-38.95,14.947-59.32,10.402c-22.457-4.868-45.303-7.723-68.267-8.533c-22.964,0.81-45.81,3.666-68.267,8.533     c-14.211,2.834-28.915,1.923-42.667-2.645L55.493,169.903c-14.959-17.301-30.945-33.686-47.872-49.067     c0,0,51.2,10.24,94.123,14.848l-0.256,2.219c0,0,59.733,34.133,102.4,34.133h102.4c42.667,0,102.4-34.133,102.4-34.133     l-0.256-2.219C451.354,131.076,502.554,120.836,502.554,120.836z" fill="#f44335"/></g><path d="M144.069,241.668v0.085h0.085v168.021h-102.4V203.78c-1.12-14.839,5.948-29.106,18.432-37.205    c1.489-0.867,3.061-1.582,4.693-2.133c21.418-7.936,50.603,6.997,67.328,35.669c6.908,11.414,10.976,24.32,11.861,37.632h-0.085    c0.17,1.073,0.256,2.157,0.256,3.243v0.256L144.069,241.668z" fill="#c52828"/><path d="M118.469,241.668v0.085h0.085v168.021h-76.8V203.78c-1.12-14.839,5.948-29.106,18.432-37.205    c1.489-0.867,3.061-1.582,4.693-2.133c17.784,6.42,32.619,19.101,41.728,35.669c6.908,11.414,10.976,24.32,11.861,37.632h-0.085    c0.17,1.073,0.256,2.157,0.256,3.243v0.256L118.469,241.668z" fill="#f44335"/><path d="M152.687,503.641H33.221V392.708c0-4.713,3.821-8.533,8.533-8.533h102.4    c4.713,0,8.533,3.82,8.533,8.533V503.641z" fill="#607d8b"/><path d="M127.087,503.641H33.221V392.708c0-4.713,3.821-8.533,8.533-8.533h76.8    c4.713,0,8.533,3.82,8.533,8.533V503.641z" fill="#cfd8dc"/><path d="M502.554,120.836c0,0-76.8,68.267-85.333,110.933c-8.163,37.764-42.772,63.839-81.323,61.269    c24.221-9.192,42.035-30.164,47.189-55.552c8.021-40.192,76.629-103.083,84.565-110.251c0.512-0.427,0.768-0.683,0.768-0.683    s-110.933-51.2-136.533-76.8c-11.008-11.008-21.675-23.979-36.437-30.123c-5.59-2.353-11.476-3.932-17.493-4.693    c16.214-7.947,35.111-8.321,51.627-1.024c14.763,6.144,25.429,19.115,36.437,30.123    C391.621,69.636,502.554,120.836,502.554,120.836z" fill="#c52828"/></g><g><path d="M511.696,119.537c-0.097-0.321-0.214-0.637-0.35-0.944c-0.284-0.679-0.656-1.317-1.106-1.898    c-0.128-0.168-0.168-0.372-0.31-0.533c-0.076-0.086-0.185-0.117-0.264-0.198c-0.623-0.648-1.346-1.192-2.141-1.612    c-0.129-0.068-0.232-0.183-0.365-0.244l-0.031-0.02C506.037,113.579,397.296,63.241,373.054,39    c-1.858-1.858-3.7-3.771-5.558-5.692c-9.278-10.992-20.732-19.942-33.641-26.287c-26.615-12.013-57.93-5.665-77.766,15.764    C236.256,1.348,204.935-5.001,178.321,7.02c-12.909,6.345-24.364,15.296-33.642,26.288c-1.858,1.921-3.7,3.833-5.558,5.692    C114.887,63.233,6.137,113.579,5.046,114.087l-0.043,0.029c-0.089,0.042-0.159,0.12-0.247,0.165    c-0.838,0.431-1.598,1.001-2.248,1.684c-0.079,0.081-0.186,0.111-0.262,0.196c-0.143,0.16-0.182,0.366-0.311,0.534    c-0.449,0.58-0.82,1.216-1.104,1.892c-0.137,0.309-0.255,0.626-0.353,0.95c-0.183,0.687-0.279,1.395-0.284,2.107    c-0.029,0.3-0.041,0.601-0.037,0.902c0.009,0.097-0.023,0.188-0.011,0.286c0.109,0.912,0.365,1.801,0.758,2.631    c0.036,0.078,0.105,0.138,0.144,0.215c0.433,0.838,1.003,1.598,1.687,2.248c0.087,0.084,0.119,0.2,0.211,0.282    c14.725,13.41,28.745,27.575,42.003,42.438c-7.337,9.848-11.129,21.887-10.761,34.162c0.05,0.704,0.19,1.4,0.417,2.068    c-0.203,0.617-0.332,1.256-0.384,1.903v170.237c-5.262,3.025-8.513,8.623-8.533,14.692v110.933    c-0.001,2.263,0.898,4.434,2.499,6.035c1.6,1.6,3.771,2.499,6.035,2.499h119.467c2.263,0.001,4.434-0.898,6.035-2.499    c1.6-1.6,2.499-3.771,2.499-6.035V393.708c-0.02-6.069-3.272-11.668-8.533-14.692v-78.164c5.833,1.171,11.767,1.772,17.717,1.793    c6.074-0.002,12.133-0.597,18.092-1.775c21.914-4.726,44.199-7.525,66.6-8.367l0.019-0.004    c22.389,0.846,44.662,3.645,66.565,8.366c5.962,1.197,12.028,1.801,18.108,1.804c41.195,0.579,77.087-27.962,85.8-68.229    c6.533-32.671,61.867-87.763,82.633-106.229c0.09-0.08,0.122-0.193,0.208-0.276c0.69-0.653,1.266-1.417,1.702-2.261    c0.037-0.073,0.103-0.132,0.138-0.206c0.394-0.832,0.651-1.722,0.761-2.636c0.011-0.097-0.02-0.189-0.012-0.286    C512.004,121.535,511.896,120.527,511.696,119.537L511.696,119.537z M151.187,51.066c1.925-1.925,3.842-3.908,5.767-5.904    c7.728-9.265,17.238-16.882,27.967-22.4c22.972-10.49,50.161-2.662,64.039,18.436l0.003,0.004l0.025,0.031    c0.318,0.381,0.67,0.732,1.053,1.049c0.386,0.488,0.827,0.93,1.314,1.318l0.013,0.005c0.934,0.618,1.981,1.047,3.081,1.26    c1.092,0.013,2.185,0.013,3.277,0c1.098-0.214,2.144-0.641,3.077-1.258l0.018-0.007c0.565-0.435,1.071-0.943,1.505-1.509    c0.309-0.264,0.597-0.55,0.862-0.858l0.025-0.031l0.003-0.004c13.878-21.099,41.067-28.926,64.039-18.436    c10.728,5.518,20.239,13.135,27.967,22.4c1.925,1.996,3.842,3.979,5.767,5.904c19.042,19.042,80.642,50.408,115.15,67.175    c-33.199,6.416-66.811,10.467-100.583,12.125c-19.56-0.965-38.829-5.141-57.033-12.362c-19.94-7.822-41.035-12.295-62.433-13.238    c-21.398,0.943-42.494,5.416-62.433,13.238c-18.204,7.221-37.473,11.398-57.033,12.362c-33.772-1.658-67.384-5.71-100.583-12.125    C70.554,101.47,132.146,70.108,151.187,51.066z M256.087,164.5h-51.2c-22.747-1.61-44.997-7.43-65.619-17.162    c20.482-1.308,40.643-5.74,59.786-13.142c18.204-7.221,37.473-11.398,57.033-12.363c19.56,0.965,38.829,5.141,57.033,12.363    c19.149,7.406,39.319,11.838,59.808,13.143c-20.629,9.737-42.887,15.556-65.642,17.161H256.087z M62.037,177.391    c0.054-0.046,0.073-0.114,0.126-0.16c1.018-0.828,2.106-1.567,3.249-2.21c17.367-9.842,45.058,4.079,60.475,30.4    c5.998,9.991,9.629,21.222,10.617,32.833c-0.032,0.504-0.018,1.011,0.042,1.513c0.075,0.624,0.116,1.251,0.125,1.879    c-0.006,0.117,0.015,0.233,0.014,0.351c-0.022,0.252-0.147,0.471-0.147,0.729c-0.002,0.396,0.026,0.791,0.083,1.183v132.733    H51.287V208.779c-0.05-0.704-0.19-1.4-0.417-2.068c0.203-0.617,0.332-1.256,0.384-1.903c-0.675-10.248,3.234-20.267,10.67-27.351    L62.037,177.391z M145.154,496.108h-102.4l-0.009-102.4h102.409V496.108z M409.854,231.091    c-8.557,37.755-46.042,61.474-83.825,53.042c-23.006-4.993-46.414-7.905-69.942-8.7l-0.021,0.004    c-23.515,0.797-46.91,3.708-69.904,8.695c-10.756,2.092-21.84,1.807-32.475-0.835v-40.573l-0.026-0.15    c0.006-0.132,0.076-0.242,0.076-0.375v-0.242c0-1.029-0.042-2.025-0.125-3.038c0-0.208,0-0.417-0.009-0.629    c-0.949-14.678-5.407-28.915-13-41.513c-20.118-34.331-56.917-50.699-82.567-37.104c-7.989-9.04-15.922-17.323-22.816-24.234    c17.137,3.001,39.633,6.62,61.012,9.102c0.574,0.693,1.256,1.29,2.02,1.765c2.517,1.442,62.208,35.258,106.633,35.258h102.4    c44.425,0,104.117-33.817,106.633-35.258c0.764-0.476,1.446-1.072,2.02-1.765c21.358-2.479,43.832-6.094,60.963-9.093    C452.824,159.568,415.958,200.573,409.854,231.091z"/><path d="M307.221,53.566c11.973,0.501,22.378,8.379,26.108,19.767c0.958,2.899,3.393,5.066,6.384,5.68    c2.991,0.614,6.083-0.417,8.106-2.705s2.669-5.482,1.694-8.375c-6.032-18.338-22.927-30.916-42.225-31.433    c-4.713-0.018-8.548,3.787-8.567,8.5S302.508,53.548,307.221,53.566z"/><path d="M68.354,479.645c2.263,0.001,4.434-0.898,6.035-2.499c1.6-1.6,2.499-3.771,2.499-6.035v-56.363    c0-4.713-3.821-8.533-8.533-8.533s-8.533,3.821-8.533,8.533v56.363c-0.001,2.263,0.898,4.434,2.499,6.035    C63.92,478.747,66.091,479.646,68.354,479.645z"/></g></g><g transform="matrix(-0.013810683389829997 -0.05524271804746924 0.05524271804746924 -0.013810683389829997 28.393339999836737 52.67761164014099)" id="L1_4"><path d="M240.54,345.044c-33.854,12.117-67.833,32.605-86.383,65.272   c-19.738,34.853-33.541,69.769-65.834,96.315c-0.25,0.25-0.562,0.437-0.812,0.687c-52.405,42.036-115.865-21.424-73.829-73.829   c0.25-0.25,0.437-0.562,0.687-0.812c26.546-32.292,61.462-46.096,96.315-65.833c32.667-18.551,53.154-52.53,65.272-86.383   L240.54,345.044z" fill="#cc66a1"/><ellipse cx="336px" cy="184px" rx="158px" ry="189px" transform="matrix(-0.7071 -0.7071 0.7071 -0.7071 444.8499 552.5474)" fill="#955ba5"/><path d="M227.548,293.451c-48.218-48.218-38.41-136.481,21.861-196.752S397.943,26.62,446.161,74.838   s38.41,136.481-21.861,196.752S275.766,341.669,227.548,293.451z" fill="#b0d3f0"/><g><path d="M252.534,277.297c-2.342,0.003-4.588-0.928-6.241-2.586c-9.523-9.633-16.29-21.644-19.595-34.78    c-3.437-13.637-4.051-27.833-1.802-41.716c2.332-15.055,7.126-29.623,14.19-43.12c2.253-4.298,7.553-5.971,11.866-3.746    c4.313,2.225,6.02,7.514,3.824,11.841c-6.176,11.778-10.37,24.493-12.414,37.634c-1.891,11.51-1.413,23.285,1.405,34.603    c2.518,10.115,7.701,19.369,15.009,26.802c2.524,2.525,3.279,6.321,1.913,9.619C259.323,275.145,256.105,277.296,252.534,277.297    L252.534,277.297z" fill="#ffffff"/><path d="M426.767,217.977c-3.077-0.005-5.93-1.611-7.529-4.24c-1.6-2.628-1.716-5.9-0.307-8.635    c6.178-11.778,10.375-24.492,12.422-37.634c1.884-11.511,1.403-23.285-1.414-34.603c-2.521-10.113-7.7-19.367-15-26.806    c-2.228-2.23-3.098-5.479-2.281-8.524c0.817-3.045,3.196-5.422,6.241-6.237c3.045-0.815,6.294,0.057,8.522,2.287    c9.522,9.631,16.286,21.641,19.586,34.776c3.432,13.636,4.048,27.829,1.81,41.711c-2.33,15.058-7.128,29.628-14.198,43.125    C433.105,216.136,430.074,217.981,426.767,217.977z" fill="#ffffff"/></g></g><g transform="matrix(0.058919023136384106 0.03927934840894406 -0.03927934840894406 0.058919023136384106 181.97227446776222 290.86119770502665)" id="L1_5"><path d="M354.516,45.815 308.966,0 273.655,0 238.345,0 203.034,0 157.484,45.815 150.422,52.966    150.069,53.319 162.251,69.65 214.334,150.069 220.69,176.552 291.31,176.552 297.666,150.069 349.749,69.65 361.931,53.319    361.578,52.966z" fill="#3b97d3"/><g><path d="M238.345,0 211.862,52.966 150.422,52.966 157.484,45.815 203.034,0z" fill="#2980ba"/><path d="M361.578,52.966 300.138,52.966 273.655,0 308.966,0 354.516,45.815z" fill="#2980ba"/><path d="M300.138,52.966 256,150.069 211.862,52.966z" fill="#2980ba"/></g><path d="M308.966,158.897v70.621H203.034v-70.621c0.015-4.869,3.958-8.813,8.828-8.828h88.276   C305.007,150.084,308.951,154.027,308.966,158.897z" fill="#35495e"/><path d="M380.849,237.491l-0.01-0.009c-18.567-16.504-42.544-25.62-67.386-25.62H198.547   c-24.841,0-48.819,9.116-67.386,25.62l-0.01,0.009c-30.643,27.238-41.874,70.245-28.463,108.988l44.959,129.881   C155.03,497.692,175.124,512,197.698,512h116.604c22.574,0,42.668-14.308,50.052-35.64l44.959-129.881   C422.724,307.736,411.492,264.729,380.849,237.491z" fill="#b0d3f0"/><g><path d="M353.465,408.703c-2.854-0.006-5.53-1.389-7.185-3.715c-1.655-2.325-2.085-5.307-1.156-8.005    l22.478-64.944c3.721-10.699,4.183-22.262,1.328-33.224c-0.807-3.054,0.08-6.306,2.325-8.527c2.245-2.222,5.506-3.074,8.551-2.236    c3.045,0.838,5.41,3.24,6.202,6.298c3.747,14.339,3.147,29.468-1.724,43.466l-22.479,64.944    C360.576,406.315,357.228,408.701,353.465,408.703z" fill="#e6e7e8"/><path d="M357.379,272.703c-2.161,0.001-4.248-0.792-5.862-2.228c-10.484-9.33-24.031-14.481-38.065-14.474    c-4.875,0-8.828-3.952-8.828-8.828s3.952-8.828,8.828-8.828c18.357-0.001,36.077,6.735,49.797,18.931    c2.741,2.435,3.691,6.312,2.387,9.739C364.333,270.442,361.046,272.706,357.379,272.703L357.379,272.703z" fill="#e6e7e8"/></g><path d="M378.439,435.553l-14.124,40.783c-7.352,21.36-27.463,35.69-50.052,35.663H197.738   c-22.59,0.026-42.701-14.303-50.052-35.663l-16.066-46.257c39.354-26.756,89.755-31.231,133.208-11.829   C300.62,433.553,339.714,439.506,378.439,435.553z" fill="#d75e72"/></g><path d="M58.307,351.001c-8.764,1.739-13.738-47.06-13.738-47.06s-7.607,1.18-7.596,21.055   c-22.502-5.57-12.862-91.187-12.862-91.187s-13.44-2.347-23.676,5.546c-3.789-7.893,18.415-17.818,18.415-17.818   s-5.261-4.1-14.626-2.056c-1.733-5.838,15.508-9.937,15.508-9.937s-5.547-5.547-16.658-4.683   c1.471-7.298,15.501-7.602,15.501-7.602s8.448-42.073,7.876-48.805c-0.572-6.72,1.472-16.955-19.285,13.452   c-0.875-69.257,56.4-69.257,72.772-84.466c16.359-15.186,48.092-22.911,54.654-29.222c6.568-6.317,23.092-21.906,35.948-21.334   c-14.316,11.111-26.022,25.433-13.744,21.632c57.306-19.285,102.59-11.98,125.395,0.584c22.794,12.57,80.969,56.43,92.366,119.836   c11.396,63.412-9.493,69.263-14.024,79.795c23.378,57.557-29.52,99.945-29.52,99.945s4.671-89.739-16.955-101.416   c-6.131-2.92-2.056,21.334-11.969,29.52c0.863-29.801-10.241-56.108-10.241-56.108s3.503,19.29-2.919,27.757   c-1.156-21.043-11.105-35.359-11.105-35.359s5.839,21.626-3.503,27.768c-1.156-19.605-11.969-37.133-11.969-37.133   s-2.324,8.034-1.472,28.363c-5.547-11.7-48.227-68.393-57.008-52.909c-8.764,15.496,48.519,55.537,48.799,78.039   c-19.268-19.863-93.802-85.354-104.037-90.317c-10.235-4.963,28.649,54.655,54.059,73.069   c-20.739-2.347-47.929-29.811-47.929-29.811s17.241,31.563,30.098,42.375c-13.154,6.423-42.091-32.146-48.221-40.612   c0.583,9.646,0.187,24.02,25.619,42.435c-24.259,7.882-49.283-57.954-52.5-51.204c-7.894,33.898,9.336,57.872,32.725,77.162   c-25.421-0.304-64.306-47.935-64.306-47.935s-11.099,40.916,9.073,49.674C52.749,284.675,53.333,331.711,58.307,351.001z" transform="matrix(-0.04411624693544061 -0.04411624693544061 -0.04411624693544061 0.04411624693544061 33.60429434059856 315.0448352883069)" id="L1_6"/><path d="M248.691,107.018c0,0-65.041,71.586-94.561,64.504c18.578-7.66,25.684-32.247,25.684-32.247s-83.644,26.245-89.657,43.176   c-6.551,30.617,51.929,101.135,61.772,107.697c9.838,6.551-7.105,80.97-7.105,80.97s-33.35-39.422-29.52-58.55   c-13.119,27.337-69.975,45.378-69.975,45.378l27.885-77.069c0,0-45.914,62.321-69.975,21.311   c34.996-7.123,64.521-205.014,105.514-244.915c40.999-39.912,117.542-95.67,159.625-19.145   c63.407-28.422,67.786,116.981,67.786,116.981s18.041,132.832,31.715,160.718c-19.139,15.297-37.18-39.901-37.18-39.901   s-23.494,69.97-24.043,81.448c-20.226,4.916-36.083-39.912-36.083-39.912s-18.029,27.885-24.592,43.193   c-10.941,1.086-13.592-67.798-13.592-67.798s57.311-41.547,63.324-88.255c-18.029-26.548-35.533-86.673-35.533-86.673   s-1.098,32.264-10.93,34.991c6.82-9.161,3.83-42.102,3.83-42.102s-14.771,44.998-37.18,49.289   C235.73,145.109,248.691,107.018,248.691,107.018z" transform="matrix(0.07304946046718133 0.04613650472771659 -0.04613650472771659 0.07304946046718133 108.00325241393534 1.8786603149022163)" id="L1_7"/><path d="M148.669,146.901 157.862,137.709 157.862,137.709 186.146,109.425 167.053,90.332 138.769,118.616 127.751,107.598   156.035,79.313 136.943,60.222 108.658,88.506 97.639,77.487 125.923,49.202 106.832,30.11 78.547,58.395 67.528,47.376   95.813,19.092 76.72,0 48.436,28.284 20.152,56.568 18.738,57.982 32.88,72.125 32.879,72.125 175.539,214.783 196.045,194.277z" transform="matrix(0.15129950642585754 0 0 0.15129950642585754 246.75171733175307 33.70158591866493)" id="L1_8"/><g transform="matrix(0.07733980411173336 0.008286407886105872 -0.008286407886105872 0.07733980411173336 183.32233056623937 130.07968972855315)" id="L1_9"><path d="M215.134,255.281l140.848-201.15c5.579-7.968,3.643-18.951-4.325-24.53l-12.202-8.544l-96.39,100.982  l-64.662,129.023l12.202,8.544C198.573,265.185,209.555,263.249,215.134,255.281z" fill="#ffe9bf"/><path d="M256.649,296.796l201.15-140.847c7.968-5.579,18.951-3.643,24.53,4.325l8.544,12.202l-100.982,96.39  l-129.024,64.661l-8.544-12.202C246.743,313.357,248.681,302.375,256.649,296.796z" fill="#ffd37d"/><g><path d="M38.46,435.762L7.813,466.409c-10.417,10.417-10.417,27.307,0,37.724   c10.417,10.417,27.307,10.417,37.724,0l30.658-30.658L38.46,435.762z" fill="#fc7576"/><path d="M503.548,163.596L170.354,396.901l-29.564,77.726l351.287-245.973   C513.21,213.856,518.345,184.729,503.548,163.596z" fill="#fc7576"/></g><path d="M115.037,341.556c8.942,2.097,17.646,5.876,25.629,11.465  c33.606,23.531,41.773,69.849,18.242,103.455s-69.849,41.773-103.455,18.242c-33.606-23.531-41.773-69.849-18.242-103.455  L283.185,19.977c14.797-21.133,43.924-26.268,65.057-11.471L115.037,341.556z" fill="#fcb5b5"/><circle cx="98" cy="413" r="25" fill="#fc7576"/></g><g transform="matrix(0.7708343459203236 0.1445314444972722 -0.1445314444972722 0.7708343459203236 7.069437250990131 74.38990695211376)" id="L1_10"><path d="M16.392,23.928c-5.605-0.028-3.06,4.002-2.333,3.897c-0.427-0.626,0.341-1.053,0.341-1.053s0.655,4.468,1.792,4.41    c1.138-0.059,1.821-4.667,1.821-4.667s0.427,0.541,0,1.31C18.44,27.825,21.996,23.956,16.392,23.928z"/><path d="M24.244,3.042c0,0,0.313,0.569,0.313,1.195c-1.224-1.28-4.608-1.195-4.608-1.195s1.508-1.223,3.472-1.052    c-0.683-1.366-5.122-0.968-5.122-0.968s0.711-0.626,2.219-0.939c-4.012-0.597-7.739,2.22-7.668,2.135    c0.071-0.086,0.27-1.252,1.607-2.135c-1.593-0.427-4.296,2.22-4.296,2.22s1.423-1.765,0.626-1.878    c-0.342,1.024-2.021,1.821-2.021,1.821S3.532,2.331,3.389,3.498C5.75,2.872,7.344,4.237,7.344,4.237S4.328,6.03,4.641,6.827    C5.58,6.287,6.035,7.14,6.035,7.14s-2.191,3.272-0.911,4.211c0.057-1.849,1.252-1.166,1.252-1.166s-0.655,8.224,0.768,9.134    c-0.398-2.59,0.427-5.18,0.427-5.18s-0.057,3.271,1.366,3.329c-1.11-2.305,1.479-7.17,1.479-7.17s2.333,2.447,1.622,3.841    c1.28,0.171,1.451-4.381,1.28-5.52c-0.171-1.139,4.154-0.455,4.154-0.455s0.597,0.797-0.882,1.564    c1.479,0.598,4.667-1.564,4.667-1.564s2.305,4.895,1.28,8.936c1.395-0.285,1.82-6.518,1.82-6.518s0.969,2.916,0.284,4.013    c0.569,0.057,1.195-3.044,1.195-3.044s0.625,1.536-0.911,6.062C31.757,6.57,24.244,3.042,24.244,3.042z"/></g><g transform="matrix(-0.19204672374651058 -0.1028821763024786 -0.1028821763024786 0.19204672374651058 79.22977264712016 141.35921653847367)" id="L1_11"><path d="M155.21,171.139l-139.281-9.151l0.916-38.039c1.56-4.473,4.891-6.839,9.357-7.835   c3.599-0.803,6.736-2.389,9.167-5.237c0.258-0.302,0.56-0.779,1.289-0.326c-1.932,13.993-1.568,28.111-0.819,42.236   c-0.056-10.988,0.486-21.95,1.499-32.886c0.421-4.549,1-9.093,2.293-13.503c0.755-2.575,2.048-4.74,4.523-6.052   c1.334-0.707,1.984-0.64,2.247,1.109c0.974,6.477,2.072,12.936,3.163,19.396c1.16,6.874,2.927,13.601,4.981,20.26   c0.118-0.323,0.135-0.626,0.08-0.914c-3.333-17.669-6.528-35.361-8.235-53.28c-1.267-13.3-2.018-26.607-0.23-39.927   c0.784-2.449,1.361-5.017,3.108-7.008c3.24-3.693,6.56-7.314,9.847-10.966c1.365-1.673,3.174-2.472,5.248-2.982   c4.741-1.165,9.518-2.025,14.391-2.304c-6.835-0.014-13.508,0.799-19.737,3.893c-2.245,1.115-3.979,0.409-4.835-1.944   c-0.862-2.369,0.063-4.351,2.781-5.739c2.964-1.513,6.243-1.911,9.444-2.62c-2.899,0.312-5.787,0.711-8.67,1.145   c-0.491,0.074-0.992,0.669-1.452,0.214c-0.421-0.416-0.128-1.006,0.064-1.505c1.463-3.804,3.732-7.014,7.176-9.25   C73.88,1.201,85.203-1.362,97.379,0.689c6.807,1.147,12.742,4.175,16.902,9.986c0.633,0.884,1.379,1.765,1.358,2.978   c-1.21,0.245-1.978-0.645-3.199-0.655c1.044,0.591,1.917,1.031,2.735,1.557c2.922,1.878,4.336,5.029,3.304,8.288   c-0.582,1.838-0.94,3.268,0.699,4.714c0.658,0.58,0.886,1.595,0.886,2.538c0,0.505,0.188,1.142-0.395,1.433   c-0.459,0.23-0.863-0.171-1.247-0.398c-9.877-5.843-20.932-6.549-31.94-7.455c8.953,0.918,17.731,2.68,26.276,5.588   c2.115,0.72,3.595,1.963,4.107,4.191c2.36,10.256,4.26,20.593,5.543,31.044c0.903,7.351,1.197,14.731,1.475,22.126   c0.415,11.047,1.019,22.089,1.757,33.119c0.502,7.499,0.335,14.998,0.399,22.035c1.322-12.706,1.472-25.887,0.331-39.124   c1.727,1.709,2.489,4.17,4.81,4.925c3.238,1.053,4.418,3.46,4.971,6.493c1.437,7.882,0.924,15.809,0.616,23.734   c-0.313,8.073-0.928,16.127-1.538,24.182c2.314-14.692,2.582-29.541,3.347-44.518c2.67,3.505,6.557,4.882,10.082,6.796   c3.412,1.852,5.626,4.608,6.549,8.388 M93.589,85.434c-0.098,1.708-0.726,2.731-1.766,3.447c-1.049,0.723-0.825,1.496-0.289,2.345   c0.559,0.884,1.221,1.698,2.403,1.095c2.422-1.235,4.504-2.75,5.37-5.587c0.604-1.977-0.08-3.264-1.585-4.306   c-5.04-3.489-10.872-2.41-16.449-2.792c-0.143-0.01-0.312,0.049-0.435,0.127c-2.511,1.588-5.67,1.6-8.091,3.559   c-0.48-4.074,0.933-6.375,4.465-7.54c0.506-0.167,1.019-0.322,1.507-0.534c0.826-0.359,1.61-0.614,0.495-1.715   c-1.266-1.25-0.617-2.354,0.778-3.424c0.28,1.045,0.034,2.367,1.108,2.521c1.709,0.244,2.899,1.168,4.077,2.256   c0.412,0.381,1.171,0.606,1.483,0.268c1.698-1.837,5.157-1.642,5.53-4.965c1.816,1.868,1.778,2.234-0.529,4.54   c2.95,1.682,7.427,1.205,7.972,6.189c0.703-1.075,0.588-2.087,1.618-2.341c0.103,1.031,0.104,1.949,0.309,2.819   c0.165,0.699-0.123,1.753,0.756,2.007c0.839,0.243,1.274-0.685,1.782-1.217c2.199-2.305,3.44-5.19,4.869-7.975   c0.527-1.027,0.688-1.908,0.443-3.029c-1.116-5.101-1.766-10.218-0.28-15.386c0.268-0.934,0.221-1.969,0.249-2.96   c0.1-3.595-2.608-5.792-6.164-5.042c-2.591,0.546-4.826,1.852-7.026,3.241c-1.163,0.735-2.335,1.457-3.7,1.762   c-1.876,0.419-3.565-0.717-3.869-2.586c-0.197-1.212,1.192-3.302,1.842-2.813c1.344,1.009,2.439,0.3,3.629-0.168   c4.039-1.591,7.993-3.633,12.799-2.163c-1.471-1.83-3.132-2.637-5.049-3.11c-3.268-0.805-6.372,0.124-9.473,0.829   c-4.915,1.118-9.362,0.997-13.49-2.627c-3.27-2.871-7.421-2.506-10.935,0.25c-2.936,2.303-5.137,5.191-6.624,8.626   c-0.753,1.74-0.932,3.47-0.476,5.348c1.059,4.368,2.434,8.728,2.376,13.248c-0.062,4.886,2.071,8.985,3.974,13.201   c0.746,1.652,1.722,1.335,2.377-0.075c0.498-1.071,0.743-2.26,1.197-3.702c1.122,1.311,0.821,2.653,0.721,3.836   c-0.41,4.83,2.167,8.082,5.593,10.899c0.897,0.737,2.029,1.502,2.95,0.157c0.727-1.061,1.744-2.272,0.244-3.624   c-0.777-0.701-1.428-1.561-1.044-2.831C82.683,88.429,89.861,88.622,93.589,85.434z M64.889,93.785   c4.136,14.198,27.684,26.296,40.256,21.081c-5.149-3.628-2.827-21.623,3.981-28.321c0.128,0.307,0.307,0.558,0.332,0.824   c2.648,28.009,2.185,55.874-4.066,83.466c7.073-30.625,9.907-61.479,5.115-93.138c0.017,1.448-0.164,2.465-0.528,3.461   c-2.213,6.041-4.873,11.843-8.779,17.018c-3.133,4.151-6.009,8.342-12.101,8.654c-3.056,0.156-5.879,0.755-8.251-1.73   c-0.206-0.216-0.481-0.525-0.723-0.525c-3.025,0.008-4.445-2.361-6.076-4.245c-2.183-2.522-4.117-5.259-6.329-8.125   c0.13,0.516,0.182,0.738,0.242,0.959c0.335,1.241,0.977,2.942-0.235,3.533c-1.084,0.529-1.425-1.436-2.255-2.136   C65.358,94.464,65.287,94.32,64.889,93.785z M62.371,79.872c-4.829,25.473-3.481,51.12,1.954,76.661   c-1.053-8.376-2.065-16.758-2.895-25.165c-1.304-13.209-0.71-26.333,1.34-39.399C63.431,87.754,64.616,83.625,62.371,79.872z" id="XMLID_122_" fill="#955ba5"/><path d="M46.161,46.989c-0.691,0.005-0.921-0.386-0.893-1.018   c0.283-6.363,3.393-14.72,11.564-17.1c0.798-0.232,1.571-0.697,2.284,0.145c-3.286,3.651-6.607,7.273-9.846,10.965   C47.522,41.973,46.945,44.54,46.161,46.989z" id="XMLID_121_" fill="#955ba5"/><path d="M124.918,83.531c-0.669-0.359-0.52-0.867-0.525-1.274   c-0.183-16.016-3.337-31.603-6.746-47.157c-0.183-0.837-0.897-1.981-0.079-2.537c0.749-0.509,1.71,0.357,2.455,0.844   c4.694,3.066,7.052,7.587,7.353,13.03c0.464,8.386-0.402,16.739-1.181,25.083C125.825,75.504,125.741,79.523,124.918,83.531z" id="XMLID_120_" fill="#955ba5"/><path d="M82.836,46.496c-0.143,1.778,0.907,2.452,1.003,3.43   c0.169,1.731-1.996,3.366-3.815,2.877c-1.084-0.291-2.112-0.841-3.115-1.37c-1.21-0.637-2.342-1.421-3.552-2.06   c-4.812-2.542-6.019-2.397-10.75,1.18c-0.468-3.098,2.103-5.851,5.718-6.008c3.453-0.15,6.529,1.249,9.621,2.531   C79.483,47.714,81.007,48.752,82.836,46.496z" id="XMLID_119_" fill="#955ba5"/><path d="M94.032,54.848c1.992-2.647,4.542-3.669,7.521-4.536   c2.915-0.848,3.884,0.311,4.818,2.429c0.205,0.465,1.318,0.68,0.512,1.416c-0.552,0.504-1.477,0.517-1.92,0.054   c-2.192-2.285-2.515-0.182-2.734,1.242c-0.349,2.271-2.226,1.672-3.516,2.179c-1.355,0.532-1.417-0.837-1.867-1.439   C96.134,55.239,95.559,54.307,94.032,54.848z" id="XMLID_118_" fill="#955ba5"/><path d="M78.391,54.914c-1.304-0.438-2.017,0.018-2.669,1.083   c-0.531,0.866-0.951,1.986-2.593,1.564c-1.543-0.396-2.863-0.667-3.074-2.522c-0.19-1.672-0.579-2.756-2.302-0.975   c-0.556,0.574-1.503,0.632-2.125,0.138c-0.988-0.785,0.332-1.058,0.536-1.581c0.473-1.212,1.04-2.651,2.454-2.751   c1.263-0.089,2.588,0.446,3.861,0.794C74.887,51.322,76.914,52.574,78.391,54.914z" id="XMLID_117_" fill="#955ba5"/><path d="M95.04,82.735c-5.991,0.855-11.954,0.058-17.938-0.054   c2.519-1.528,4.935-3.305,8.091-1.724c0.498,0.25,1.325,0.348,1.778,0.104C90.072,79.389,92.486,81.295,95.04,82.735z" id="XMLID_116_" fill="#955ba5"/></g><g transform="matrix(0.043145755162382546 -0.043145755162382546 0.043145755162382546 0.043145755162382546 0.9093733568601365 242)" id="L1_12"><g><path d="M406.069,282.483h-79.448V256c0-4.875-3.952-8.828-8.828-8.828h-17.655V26.483    C300.138,11.857,288.281,0,273.655,0h-35.31c-14.626,0-26.483,11.857-26.483,26.483v220.69h-17.655    c-4.875,0-8.828,3.952-8.828,8.828v26.483h-79.448c-4.875,0-8.828,3.952-8.828,8.828v167.724    c0,29.252,23.713,52.966,52.966,52.966h211.862c29.252,0,52.966-23.713,52.966-52.966V291.31    C414.897,286.435,410.944,282.483,406.069,282.483z" fill="#b0d3f0"/><path d="M105.931,282.483h300.138c4.875,0,8.828,3.952,8.828,8.828v167.724    c0,29.252-23.713,52.966-52.966,52.966H150.069c-29.252,0-52.966-23.713-52.966-52.966V291.31    C97.103,286.435,101.056,282.483,105.931,282.483z" fill="#b0d3f0"/></g><path d="M379.586,317.793v141.241c-0.029,9.739-7.916,17.627-17.655,17.655H150.069   c-9.739-0.029-17.627-7.916-17.655-17.655V317.793H379.586z" fill="#ff5364"/><path d="M194.207,247.172h123.586c4.875,0,8.828,3.952,8.828,8.828v26.483H185.379V256   C185.379,251.125,189.332,247.172,194.207,247.172z" fill="#547580"/><path d="M238.345,0h35.31c14.626,0,26.483,11.857,26.483,26.483v220.69h-88.276V26.483   C211.862,11.857,223.719,0,238.345,0z" fill="#3f5c6c"/><g><path d="M273.655,406.069v35.31h-35.31v-35.31c0.893-11.292,7.575-21.315,17.655-26.483    C266.08,384.754,272.762,394.777,273.655,406.069z" fill="#802f34"/><path d="M264.828,317.793v68.679c0.715,3.573-0.794,7.225-3.823,9.251s-6.98,2.026-10.009,0    s-4.538-5.678-3.823-9.251v-68.679H264.828z" fill="#802f34"/></g></g><g transform="matrix(0.06352912518170507 0.01104854309463154 -0.01104854309463154 0.06352912518170507 267.5649709857092 305.90811692125783)" id="L1_13"><path d="M420.716,297.467c-1.249-9.935-6.814-14.182-11.265-15.995c-6.799-2.772-19.437-4.097-51.071,14.588    c2.877-11.921,1.744-24.753-3.796-36.274c10.905-13.613,23.343-32.327,21.606-46.221c-1.257-10.055-6.873-14.341-11.365-16.166    c-25.623-10.418-83.822,36.339-105.472,53.646c0.71-7.491-0.284-15.173-3.11-22.427c10.633-13.011,23.608-31.805,21.876-45.664    c-1.275-10.202-7.43-14.149-10.986-15.595c-14.487-5.89-37.978,7.069-54.385,17.329c-24.73,15.463-24.09,16.119-194.655,152.984    C6.595,346.9,0,360.649,0,375.392c0,16.181,0,90.44,0,106.878C0,498.663,13.337,512,29.73,512H45.8c4.143,0,7.5-3.357,7.5-7.5    c0-4.143-3.357-7.5-7.5-7.5H29.73c-8.121,0-14.729-6.607-14.729-14.729v-15.909l209.291-167.94    c6.434,36.15,46.878,37.856,70.027,20.886c14.526-10.662,35.649-31.529,49.185-46.56c4.113,14.813-0.775,31.201-13.283,41.237    c-0.135,0.108-31.247,25.071-228.135,183.015H80.802c-4.143,0-7.5,3.357-7.5,7.5s3.357,7.5,7.5,7.5c34.695,0,124.242,0,158.935,0    c13.874,0,27.475-4.782,38.296-13.466l52.622-42.227c3.23-2.593,3.748-7.313,1.155-10.545c-2.593-3.23-7.313-3.747-10.545-1.155    l-52.621,42.227c-8.169,6.555-18.436,10.165-28.908,10.165H126.115l144.038-115.58c1.319,7.159,3.735,12.569,6.439,16.408    c11.281,16.056,37.696,18.112,56.731,7.888c11.49-6.178,33.133-27.11,42.176-36.269c4.228,15.312-0.861,32.335-13.706,42.642    l-13.228,10.615c-3.23,2.593-3.747,7.313-1.155,10.545c2.592,3.229,7.312,3.746,10.545,1.155l13.227-10.615    c19.881-15.953,26.176-43.668,15.816-66.464C396.07,347.347,423.224,317.417,420.716,297.467z M220.806,197.342    c30.11-18.81,39.17-16.701,40.679-16.085c0.411,0.167,1.373,0.558,1.748,3.559c2.397,19.155-56.869,76.662-73.057,87.372    c-13.844,8.94-31.739,6.638-37.536-1.234c-4.228-5.737-4.303-14.226-4.658-18.274    C179.583,227.373,197.139,212.126,220.806,197.342z M226.211,277.64c-12.562,10.062-199.256,159.592-211.21,169.166v-71.414    c0-10.171,4.549-19.653,12.481-26.019l106.567-85.512c2.785,14.584,10.004,22.222,20.62,26.337    c9.895,3.835,22.179,4.108,33.847-0.365c16.169-6.202,44.232-34.921,55.823-47.571    C247.182,265.563,227.851,275.629,226.211,277.64z M285.559,307.129c-15.235,11.226-36.826,9.193-43.142-1.497    c-3.014-5.098-4.059-12.557-4.113-18.454c32.264-25.962,52.332-43.164,77.362-58.801c32.094-20.05,41.875-17.745,43.512-17.081    c0.551,0.224,1.697,0.691,2.127,4.129C363.893,236.128,302.761,294.486,285.559,307.129z M328.907,390.906    c-12.437,7.997-33.589,8.893-40.618-2.595c-3.201-5.275-4.071-13.095-4.156-18.111c40.472-32.333,52.695-43.183,76.603-58.032    c31.782-19.74,41.442-17.464,43.056-16.805c0.527,0.215,1.626,0.663,2.042,3.975C408.427,319.991,344.715,380.666,328.907,390.906    z"/><path d="M504.5,40.452c4.143,0,7.5-3.357,7.5-7.5V20.155C512,9.042,502.958,0,491.845,0h-69.616    c-11.114,0-20.155,9.042-20.155,20.155v47.642c0,10.055,6.753,19.002,16.422,21.759l15.75,4.491v62.085    c0,4.555,1.411,8.786,3.815,12.283c-1.027,17.601-6.457,54.804-33.161,77.093c-7.277,6.072-7.187,17.324,0.157,23.375    c12.903,9.505,17.023,17.165,27.743,17.165c7.262,0,13.959-4.003,17.29-10.636c8.018-15.974,21.465-50.716,22.606-105.398    c3.135-3.768,5.024-8.609,5.024-13.882v-49.688c3.483,0.252,14.746,7.381,26.041-1.142c5.236-3.951,8.24-9.981,8.24-16.541V67.954    c0-4.142-3.357-7.5-7.5-7.5s-7.5,3.357-7.5,7.5v20.807c0,1.812-0.829,3.477-2.275,4.567c-3.813,2.881-6.491-0.14-22.447-4.036    c-9.724-2.773-39.722-11.327-49.668-14.163c-3.259-0.929-5.534-3.944-5.534-7.332V20.155c0-2.794,2.36-5.154,5.154-5.154h69.616    c2.794,0,5.154,2.36,5.154,5.154v12.797C496.999,37.095,500.356,40.452,504.5,40.452z M436.682,268.682    c-1.239,2.465-4.467,3.139-6.62,1.364l-15.469-12.742c-0.141-0.116-0.091-0.275-0.083-0.28    c23.219-19.379,34.56-49.391,37.835-79.454c1.672,0.279,3.442,0.362,5.094,0.251C455.312,224.853,443.734,254.635,436.682,268.682    z M449.244,98.325l13.474,3.842v53.965c0,2.028-0.905,3.846-2.328,5.081c-4.469,3.803-11.146,0.601-11.146-5.081V98.325z"/></g><path d="M447.489,316.615c76.464-37.773,146.685-21.319,197.597,45.089c13.983,18.254,23.906,39.61,36.816,58.804   c15.744,23.407,31.336,47.148,49.457,68.677c19.383,23.023,46.236,31.241,76.271,29.785c37.312-1.801,55.701-20.533,56.467-58.498   c0.154-8.705,0.039-17.363,0.039-26.576c44.592,33.779,41.871,99.42-6.244,132.865c-15.555,10.803-33.941,19.307-52.291,23.904   c-85.736,21.511-168.445,13.045-246.213-30.742c-44.284-24.939-72.098-56.908-110.022-124.227   c-5.133,8.122-9.921,14.979-13.906,22.286C386.655,546.92,308.217,589.729,210.472,600.11   c-47.618,5.058-95.178,1.532-140.517-16.646C34.27,569.193,9.351,545.501,1.727,506.272c-5.919-30.437,3.026-51.399,32.333-71.57   c0,12.144-0.651,23.473,0.115,34.697c1.916,27.871,17.89,44.843,45.434,48.634c38.922,5.383,72.136-6.589,95.466-37.964   c20.649-27.765,38.884-57.454,56.391-87.373c24.25-41.393,56.391-72.979,101.557-90.562   C373.477,286.389,411.249,293.323,447.489,316.615" transform="matrix(0.03559991748888625 -0.010470563551867831 0.010470563551867831 0.03559991748888625 86.37547459265879 266.6633145844935)" id="L1_14"/><path d="M0.426,25.079c2.546,3.182,7.148,0,7.148,0s0.49,19.094,3.883,21.639s4.031-5.093,4.031-5.093s0.636,9.972,2.97,11.456    c2.333,1.486,5.516-4.878,5.516-4.878s0.424,7.849,5.516,7.849c0.137,0,0.265-0.041,0.389-0.095    c0.123,0.054,0.25,0.095,0.388,0.095c5.092,0,5.516-7.849,5.516-7.849s3.183,6.364,5.516,4.878    c2.333-1.484,2.97-11.456,2.97-11.456s0.637,7.638,4.031,5.093s3.884-21.639,3.884-21.639s4.603,3.182,7.147,0    c2.317-2.897-5.504-8.978-6.927-10.048c1.776,0.507,2.737,1.033,2.737,1.033c0.717-8.897-8.473-11.388-13.537-12.088    c-0.93-0.16-1.916-0.25-2.941-0.265c-0.177-0.006-0.281-0.007-0.281-0.007c-3.525,0-6.634,0.931-8.503,2.352    c-1.87-1.421-4.979-2.352-8.502-2.352c0,0-0.105,0.001-0.282,0.007c-1.024,0.015-2.012,0.105-2.941,0.265    c-5.065,0.7-14.253,3.192-13.537,12.088c0,0,0.961-0.526,2.738-1.033C5.928,16.101-1.892,22.183,0.426,25.079z M19.896,14.605    c4.228,0.744,7.794-1.961,9.981-3.385c2.188,1.424,5.754,4.129,9.981,3.385c2.87-0.505,5.378-0.573,7.498-0.428    c-1.774,0.618-3.446,2.234-7.545,3.477c-7.001,2.122-9.547,0.212-9.547,0.212s-3.322,1.91-10.323-0.212    c-4.099-1.242-5.771-2.859-7.546-3.477C14.518,14.032,17.027,14.1,19.896,14.605z" transform="matrix(0.5324860549669767 0.12678239661867777 -0.12678239661867777 0.5324860549669767 185.70012249348633 30.35030066506304)" id="L1_15"/><g transform="matrix(0.5106973627980389 -0.17874408170884665 0.17874408170884665 0.5106973627980389 177.52706530573926 215.9954756136977)" id="L1_16"><path d="M55.762,24.009c-1.151,0-2.167,0.555-2.815,1.406c-0.399-4.651-1.418-12.038-3.962-15.892    c-3.887-5.894-12.312-4.126-12.312-4.126s-3.241-0.25-3.241,5.14c0,2.373-2.614,2.668-3.613,2.696    c-0.011,0-0.031,0.001-0.045,0.001c-0.045,0.001-0.085,0.001-0.122,0.001s-0.077,0-0.122-0.001c-0.013,0-0.034,0-0.045-0.001    c-0.999-0.027-3.613-0.323-3.613-2.696c0-5.389-3.241-5.14-3.241-5.14s-8.425-1.768-12.313,4.125    c-2.542,3.854-3.562,11.241-3.961,15.891c-0.647-0.851-1.663-1.405-2.814-1.405C1.585,24.009,0,25.595,0,27.552    c0,8.825,22.697,9.51,29.653,9.51c6.958,0,29.653-0.686,29.653-9.51C59.305,25.595,57.719,24.009,55.762,24.009z M8.019,23.055    c0,0,12.517,1.76,21.804,1.771c9.144-0.01,21.469-1.771,21.469-1.771c0.163,1.423,0.295,2.826,0.389,3.901    c-2.672,1.283-10.237,3.021-22.03,3.021c-11.789,0-19.353-1.736-22.026-3.02C7.719,25.882,7.853,24.479,8.019,23.055z"/><path d="M14.651,44.073c-4.048-0.501-6.052,3.623-3.314,7.595c2.396,3.475,9.144,2.554,12.205,1.712    c0.062-0.017,0.124-0.037,0.185-0.056c0.348-0.1,0.652-0.198,0.875-0.286c2.282-0.876,4.036-2.458,5.045-4.303    c1.009,1.845,2.761,3.427,5.044,4.303c0.057,0.021,0.114,0.036,0.171,0.056c0.166,0.062,0.36,0.125,0.58,0.19    c0.132,0.04,0.262,0.081,0.395,0.115c3.094,0.836,9.754,1.719,12.133-1.731c2.736-3.972,0.732-8.096-3.315-7.595    c-4.047,0.502-2.62,3.046-2.62,3.046c-0.725-1.662,2.891-2.159,2.312,0.462s-6.748,0.274-6.748,0.274l-0.006,0.01    c-0.256-0.123-0.512-0.242-0.781-0.346c-2.49-0.956-5.078-0.873-7.164,0.022c-2.085-0.896-4.673-0.979-7.164-0.022    c-0.267,0.102-0.52,0.221-0.772,0.342l-0.003-0.006c0,0-6.169,2.347-6.748-0.274c-0.579-2.621,3.036-2.124,2.312-0.462    C17.272,47.119,18.698,44.575,14.651,44.073z"/></g><g transform="matrix(0.047365202607353676 -0.047365202607353676 0.047365202607353676 0.047365202607353676 210.85575320561338 101.842654236988)" id="L1_17"><path d="M372.81,91.564l-217.19-51.33c-33.37-7.89-69.08-1.83-97.98,16.62c-28.72,18.35-48.26,46.67-55.03,79.76    c-1.73,8.46-2.61,17.15-2.61,25.84s0.88,17.39,2.61,25.84c6.77,33.09,26.31,61.42,55.03,79.76c11.35,7.25,23.75,12.58,36.64,15.91    l36.566,144.905c6.876,27.249,31.305,46.28,59.408,46.28c18.817,0,36.315-8.456,48.007-23.2    c11.692-14.743,15.939-33.708,11.652-52.03l-30.492-130.315l153.389-36.26V91.564z" fill="#607d8b"/><path d="M488.11,62.744l-7.13-9.66l-78.17,34.43v149.88l78.17,34.43l7.13-9.66c0.98-1.32,23.89-33.13,23.89-99.71    S489.09,64.064,488.11,62.744z" fill="#607d8b"/></g><g transform="matrix(0.030008664287978926 -0.04501299683150587 0.04501299683150587 0.030008664287978926 308.794369105403 33.841063374523124)" id="L1_18"><path d="M255.767,290.133c-23.658,0-42.908,15.308-42.908,34.133c0,18.825,19.25,34.133,42.908,34.133     c23.658,0,42.9-15.308,42.9-34.133C298.667,305.442,279.425,290.133,255.767,290.133z M255.767,341.333     c-14.008,0-25.842-7.817-25.842-17.067s11.833-17.067,25.842-17.067c14,0,25.833,7.817,25.833,17.067     S269.767,341.333,255.767,341.333z"/><path d="M468.68,133.292l-0.068-0.157c-9.227-23.849-115.444-29.417-185.281-30.462C282.235,79.891,281.6,54.338,281.6,25.6     C281.6,11.461,270.138,0,256,0c-14.138,0-25.6,11.461-25.6,25.6c0,28.747-0.639,54.285-1.736,77.072     c-69.839,1.046-176.056,6.613-185.278,30.465l-0.066,0.153c-0.409,1.034-0.63,2.132-0.654,3.244v341.333     c0,7.46,0.057,21.296,96.457,29.613c4.253,2.944,9.303,4.521,14.476,4.52h204.8c5.173,0.001,10.223-1.576,14.476-4.52     c96.4-8.317,96.457-22.153,96.457-29.613V136.533C469.31,135.423,469.089,134.325,468.68,133.292z M448.117,136.533     c-17.045,6.669-72.098,15.039-161.209,16.745c-0.991-10.359-1.882-21.47-2.631-33.498     C374.86,121.261,430.848,129.713,448.117,136.533z M227.718,119.781c-0.748,12.019-1.634,23.146-2.625,33.498     c-89.111-1.706-144.165-10.076-161.21-16.745C81.151,129.714,137.138,121.261,227.718,119.781z M59.733,152.379     c31.328,12.414,100.606,16.766,163.569,17.962c-1.478,12.658-3.114,23.975-4.849,34.018     c-95.778-2.255-149.255-11.955-158.72-18.732V152.379z M59.733,475.758V203.485c30.23,11.931,95.652,16.436,155.452,17.894     c-2.198,10.345-4.469,18.986-6.699,26.251c-61.878,3.522-87.45,89.07-97.22,140.319c-1.05,5.398,0.368,10.982,3.867,15.225     c3.189,3.852,7.869,6.161,12.867,6.347V486.4c0.041,0.979,0.14,1.955,0.295,2.923C83.664,484.792,64.6,478.942,59.733,475.758z      M162.133,494.933H153.6c-4.711-0.003-8.53-3.822-8.533-8.533v-76.8h17.067V494.933z M196.267,494.933H179.2V409.6h17.067     V494.933z M230.4,494.933h-17.067V409.6H230.4V494.933z M264.533,494.933h-17.067V409.6h17.067V494.933z M298.667,494.933H281.6     V409.6h17.067V494.933z M332.8,494.933h-17.067V409.6H332.8V494.933z M366.933,486.4c-0.003,4.711-3.822,8.53-8.533,8.533h-8.533     V409.6h17.067V486.4z M383.3,392.533l-255.017-0.242c-0.254-0.322-0.346-0.743-0.25-1.142     c6.756-35.445,27.028-115.067,73.921-125.485c-2.282,6.439-5.837,12.351-10.455,17.385c-3.838,2.584-4.918,7.756-2.435,11.661     c2.483,3.904,7.625,5.119,11.593,2.739c3.015-1.809,20.766-15.22,33.517-83.916c0.006-0.106,0.064-0.194,0.066-0.301     l-0.006-0.035c2.663-14.406,5.096-31.292,7.139-50.947c0.002-0.056,0.033-0.102,0.034-0.159l-0.011-0.063     c1.579-15.231,2.913-32.16,3.926-50.965l0.01-0.056l-0.006-0.028c1.347-25.026,2.139-53.261,2.139-85.38     c0.003-4.711,3.822-8.53,8.533-8.533c4.711,0.003,8.53,3.822,8.533,8.533c0,32.119,0.792,60.354,2.139,85.38l-0.006,0.028     l0.01,0.056c1.013,18.805,2.347,35.734,3.926,50.965l-0.011,0.063c0.001,0.057,0.032,0.102,0.034,0.159     c2.043,19.656,4.475,36.541,7.139,50.947l-0.006,0.035c0.002,0.107,0.06,0.195,0.066,0.301     c12.751,68.695,30.502,82.106,33.517,83.916c1.376,0.827,2.953,1.262,4.558,1.258c2.994,0.036,5.787-1.501,7.358-4.05     c1.197-1.89,1.583-4.183,1.07-6.36s-1.881-4.057-3.796-5.215c-4.641-4.984-8.198-10.877-10.446-17.306     c47.011,10.836,67.169,90.034,73.879,125.372C384.079,391.708,383.807,392.273,383.3,392.533z M452.267,475.759     c-4.877,3.195-24.03,9.076-68.565,13.588c0.157-0.976,0.257-1.96,0.298-2.947v-76.878c4.997-0.186,9.677-2.495,12.867-6.347     c3.498-4.24,4.916-9.822,3.867-15.217c-7.817-41.172-32.83-136.064-97.205-140.287c-2.232-7.265-4.501-15.943-6.701-26.292     c59.797-1.459,125.212-5.964,155.44-17.894V475.759z M452.267,185.627c-9.465,6.777-62.936,16.477-158.708,18.732     c-1.736-10.045-3.372-21.355-4.852-34.018c62.96-1.196,132.233-5.548,163.56-17.961L452.267,185.627z"/></g><path d="M28.797,30.333c0,0,1.267-7.802-0.695-12.532c0,0-1.052-3.812-1.047-4.88c0,0-10.998,7.271-15.262,6.646   c0,0,5.652-3.786,6.574-5.764c0,0-8.708,6.06-11.602,5.592c0,0,2.903-1.972,3.517-3.033c0,0-6.86,1.346-7.041,8.354L2.457,30.5   c0,0-1.462-7.059-1.947-8.69c-1.496-5.032,0.56-13.64,2.804-15.376c0,0,4.141-7.146,18.912-4.953c0,0,7.833,0.381,10.534,10.955   c0.631,2.469-0.364,8.006-1.172,10.104c-0.801,2.082-2.878,9.356-2.878,9.356L28.797,30.333z M13.5,29.02   c1.369-0.999,1.818-4.941,1.922-6.128c0.019-0.199-0.052-0.397-0.194-0.545c-0.142-0.148-0.341-0.232-0.551-0.232H5.165   c-0.21,0-0.409,0.084-0.551,0.232c-0.142,0.146-0.212,0.346-0.195,0.545c0.104,1.187,0.554,5.129,1.923,6.128   c1.023,0.744,2.844,0.824,3.579,0.824S12.476,29.764,13.5,29.02z M13.848,23.548c-0.244,1.937-0.755,3.966-1.254,4.328   c-0.365,0.267-1.333,0.533-2.673,0.533c-1.341,0-2.309-0.269-2.673-0.533c-0.498-0.362-1.009-2.394-1.254-4.328H13.848z    M26.617,29.02c1.368-0.999,1.817-4.941,1.922-6.128c0.019-0.199-0.054-0.397-0.193-0.545c-0.143-0.148-0.342-0.232-0.551-0.232   h-9.514c-0.209,0-0.408,0.084-0.551,0.232c-0.143,0.146-0.212,0.346-0.193,0.545c0.104,1.187,0.554,5.129,1.922,6.128   c1.022,0.744,2.845,0.824,3.579,0.824S25.592,29.764,26.617,29.02z M26.964,23.548c-0.243,1.937-0.755,3.966-1.254,4.328   c-0.364,0.267-1.333,0.533-2.673,0.533c-1.341,0-2.309-0.269-2.674-0.533c-0.497-0.362-1.01-2.394-1.254-4.328H26.964z    M18.959,24.198c0-0.396-0.335-0.718-0.748-0.718h-3.465c-0.414,0-0.748,0.321-0.748,0.718s0.334,0.718,0.748,0.718h3.465   C18.625,24.916,18.959,24.594,18.959,24.198z" transform="matrix(0.7082567222745307 0.177064180185044 -0.177064180185044 0.7082567222745307 310.61881003419427 259.90413018050197)" id="L1_20"/><path d="M103.383,0.01c0,0-72.181-3.215-63.912,108.512c0,0-0.454,91.49,40.462,99.771c0,0-17.926-20.691-12.872-35.415    c0,0,22.53-4.141,19.317-38.605c0,0-18.855-16.556-21.156-28.046c0,0,0-35.869,3.224-40.466c0,0,17.932,1.379,19.765,0    c0,0,14.718-13.335,17.933-20.226c0,0,2.759,11.947-4.131,19.318h18.843c0,0,5.979-5.979,6.887-12.416    c0,0,1.839,11.496-0.907,12.863h11.039c0,0,5.974,31.725,4.592,40.926c0,0-10.571,23.437-21.154,27.571    c0,0-3.684,35.415,22.067,39.999c0,0-2.302,31.731-17.938,33.107c0,0,26.214,6.898,41.394-49.194c0,0,7.355-78.154-2.46-103.595    C164.388,54.121,154.889,5.989,103.383,0.01z" transform="matrix(0.15847350656986237 0 0 0.15847350656986237 300.3076432157459 176.47655618190765)" id="L1_21"/><path d="M12.961,27.735h8.185v1.306h-8.185V27.735z M20.354,6.045h0.789v21.26H12.96V6.044h0.977V4.295h0.484V3.724h1.547V1.379   l2.574,0.002v0.461h0.209v1.312h-0.209v0.57h1.361v0.572h0.449l0,0v1.749H20.354z M15.006,7.538H13.97v18.483h1.036V7.538z    M2.589,9.047h7.716v19.994H2.589V9.047z M3.172,15.889h6.551v-6.26H3.172V15.889z M8.898,4.582H4.045v3.592h4.854L8.898,4.582   L8.898,4.582z M26.325,0.289L26.243,0l-7.159,2.032l0.082,0.289L26.325,0.289z M19.293,2.756l-0.082,0.289l7.16,2.032l0.081-0.289   L19.293,2.756z M19.258,2.717l6.726-0.068l-0.002-0.301l-6.727,0.069L19.258,2.717z" transform="matrix(0.9053180669159411 -0.2130160092153331 0.2130160092153331 0.9053180669159411 70.76559616450423 84.92363328125928)" id="L1_23"/><g transform="matrix(0.08336105232526492 0.01894569357359876 -0.01894569357359876 0.08336105232526492 116.88351575673774 135.79456849798703)" id="L1_24"><path d="M160.122,85.646c20.932,0,37.898,16.967,37.898,37.904c0,20.932-16.967,37.904-37.898,37.904    c-20.937,0-37.903-16.973-37.903-37.904C122.219,102.612,139.186,85.646,160.122,85.646z"/><path d="M335.343,2.049c22.21,0,40.205,18.543,40.205,41.418s-17.995,41.419-40.205,41.419c-22.209,0-40.192-18.543-40.192-41.419    S313.134,2.049,335.343,2.049z"/><path d="M361.78,102.659c-14.526-11.817-39.772-5.237-52.313-1.71c-14.562,5.599-42.015,11.262-73.835,11.11    c-7.135-10.713-41.955-60.09-41.955-60.09l-2.919-1.804l30.15,60.254l8.011,2.668v4.052l-0.794-1.95l-6.562-2.201    c0.794,3.17,1.354,5.237,1.518,5.657c4.438,18.45-5.138,35.767-5.406,36.246c-3.538,4.898-4.355,11.957-1.494,18.426    c4.063,9.213,14.105,13.773,22.361,10.136c8.244-3.655,11.643-14.129,7.566-23.366c-0.012-0.023-0.035-0.047-0.047-0.082    c0.047,0.035,0.105,0.07,0.105,0.07l-9.938-24.75c1.238-0.216,2.616-0.443,4.088-0.695l11.467,23.547    c0.093,0.31,0.21,0.607,0.35,0.905c4.087,9.236,14.106,13.791,22.361,10.142c8.232-3.638,11.643-14.124,7.544-23.366    c-2.907-6.585-8.84-10.76-14.981-11.297c-0.537-0.146-3.714-0.969-7.999-2.849c22.782-3.299,50.106-6.224,49.908-1.238    c-0.339,8.547-4.087,94.538-0.759,97.398l-6.867,63.71l6.072,62.66h-17.726v18.414h60.277v-3.993v-14.433V235.872    c7.1-1.401,12.494-5.161,13.452-12.892C366.288,198.598,377.965,115.837,361.78,102.659z M226.221,108.363    c-1.413,0.619-3.06-0.023-3.679-1.424c-0.63-1.425,0-3.06,1.425-3.696c1.425-0.631,3.06,0.023,3.69,1.448    C228.276,106.092,227.634,107.727,226.221,108.363z M241.237,162.23c2.896,6.562,0.713,13.907-4.869,16.371    c-5.559,2.464-12.471-0.864-15.367-7.438c-2.919-6.568-0.735-13.908,4.857-16.372C231.44,152.304,238.33,155.656,241.237,162.23z     M261.801,140.551c5.559-2.464,12.448,0.876,15.367,7.438c2.896,6.562,0.724,13.907-4.858,16.371    c-5.581,2.464-12.471-0.864-15.39-7.438C254.035,150.354,256.219,143.015,261.801,140.551z"/><path d="M227.634,96.715l-22.023-54.97l-0.49,3.591c0,0,3.27,13.691,7.029,29.222C217.404,82.055,222.986,90.03,227.634,96.715z"/><path d="M44.817,309.461c3.871,0.677,7.853,1.283,11.864,1.867c0.415,0.07,0.823,0.117,1.244,0.176    c18.567,2.744,38.056,4.705,55.829,5.324c1.062,0.035,2.09,0.047,3.141,0.082c2.248,0.07,4.461,0.105,6.65,0.117    c0.619,0,1.278,0.035,1.903,0.035c0.788,0,1.518-0.023,2.283-0.035c1.244-0.012,2.464-0.023,3.667-0.047    c1.513-0.047,2.978-0.094,4.449-0.152c1.174-0.059,2.347-0.105,3.491-0.175c1.401-0.093,2.75-0.198,4.116-0.292    c1.098-0.105,2.213-0.198,3.275-0.304c1.302-0.128,2.534-0.292,3.766-0.455c1.016-0.14,2.032-0.257,2.989-0.421    c1.197-0.198,2.306-0.42,3.445-0.654c0.888-0.162,1.792-0.326,2.633-0.525c1.109-0.268,2.125-0.583,3.153-0.875    c0.718-0.211,1.483-0.396,2.154-0.643c1.062-0.361,1.997-0.782,2.942-1.203c0.502-0.232,1.062-0.396,1.53-0.653    c1.337-0.677,2.545-1.401,3.562-2.207c0.525-0.409,1.039-0.923,1.529-1.519c0.204-0.244,0.386-0.537,0.578-0.816    c0.286-0.386,0.572-0.748,0.847-1.215c0.216-0.361,0.42-0.794,0.619-1.203c0.228-0.443,0.467-0.84,0.683-1.319    c0.216-0.455,0.409-0.969,0.602-1.46c0.187-0.514,0.403-0.98,0.596-1.506c0.192-0.549,0.356-1.109,0.537-1.693    c0.192-0.572,0.374-1.109,0.549-1.729c0.169-0.561,0.327-1.214,0.479-1.821c0.169-0.642,0.351-1.261,0.502-1.938    c0.146-0.631,0.274-1.284,0.421-1.914c0.169-0.748,0.321-1.473,0.479-2.242c0.128-0.631,0.239-1.285,0.345-1.939    c0.157-0.84,0.297-1.67,0.455-2.545c0.111-0.631,0.192-1.262,0.286-1.903c0.146-0.946,0.286-1.88,0.42-2.861    c0.082-0.606,0.158-1.237,0.228-1.821c0.14-1.074,0.263-2.125,0.391-3.199c0.064-0.561,0.123-1.133,0.181-1.705    c0.134-1.191,0.251-2.359,0.362-3.573c0.035-0.491,0.082-1.017,0.129-1.507c0.11-1.296,0.228-2.604,0.321-3.912    c0.041-0.467,0.076-0.945,0.099-1.424c0.094-1.39,0.205-2.779,0.274-4.204c0.023-0.374,0.047-0.747,0.059-1.12    c0.082-1.519,0.169-3.061,0.239-4.602c0.012-0.304,0.023-0.619,0.035-0.91c0.076-1.635,0.134-3.246,0.192-4.904    c0-0.223,0.012-0.444,0.023-0.689c0.047-1.717,0.094-3.422,0.146-5.115c0-0.081,0-0.128,0-0.175l0,0    c0.438-20.236-0.263-40.566-1.413-54.234c0-0.011,0-0.011,0-0.011c-0.012-0.14-0.023-0.251-0.035-0.392    c-0.123-1.308-0.239-2.563-0.351-3.742c-0.047-0.52-0.105-0.969-0.151-1.448c-0.082-0.765-0.17-1.53-0.251-2.248    c-0.059-0.444-0.123-0.888-0.182-1.308c-0.093-0.701-0.192-1.302-0.286-1.909c-0.046-0.333-0.093-0.683-0.157-0.981    c-0.14-0.835-0.298-1.629-0.438-2.248c-1.401-0.993-2.978-1.757-4.665-2.429c-0.082-0.035-0.158-0.07-0.239-0.105    c-1.688-0.66-3.492-1.15-5.383-1.518c-0.047-0.023-0.07-0.035-0.117-0.052c-0.012,0-0.023,0-0.035,0    c-13.05-2.627-29.847,0.251-37.093,0.239c-3.316,1.775-6.516,17.054-11.613,33.91c-0.654,2.184-1.326,4.344-2.043,6.528    c-0.012,0.046-0.035,0.117-0.047,0.163c-1.506,4.578-3.158,9.132-4.986,13.452c0,0,0,0,0,0.023    c-0.91,2.125-1.868,4.215-2.884,6.225c-0.023,0.058-0.059,0.128-0.094,0.197c-1.004,2.009-2.072,3.924-3.193,5.723    c-0.012,0.023-0.023,0.047-0.035,0.082c-3.421,5.522-7.345,10.029-11.922,12.773c0,0,0,0,0.012,0    c-3.585,2.149-7.567,3.235-12.016,2.861C44.42,243.812-4.677,301.065,44.817,309.461z"/><path d="M192.088,324.641l0.117,0.023l24.066-108.714l-24.276-5.372l-1.816,8.126c0.578,37.543-2.16,83.936-14.392,93.465    c-8.18,6.387-25.123,9.645-50.352,9.645c-13.178,0-28.568-0.957-44.7-2.662v6.189h40.969l-5.202,29.215H79.55l-12.634,18.941    h142.151l-12.646-18.941h-39.3l-5.202-29.215h40.169V324.641z"/><path d="M86.306,244.758c0.479,0.047,0.946,0.059,1.413,0.059c12.161,0,20.662-15.613,26.775-32.428    c-9.161,10.591-19.472,18.695-29.345,18.064C73.274,230.628,71.23,240.379,86.306,244.758z"/><path d="M44.028,314.131c-7.129-1.203-12.208-3.34-15.869-5.885c-6.866,10.836-13.031,20.926-16.873,27.301H0v17.096h55.157    v-17.096h-0.905l12.506-18.029C59.215,316.538,51.584,315.417,44.028,314.131z"/></g><g transform="matrix(0.06018991435840777 0.06018991435840777 -0.06018991435840777 0.06018991435840777 262.08106114701496 159.37096458736528)" id="L1_26"><path d="M238.426,227.704c1.483-2.302,2.611-5.184,3.229-9H57.885c7.966,49.369,34.426,70.191,41.021,74.682   h2.529c-10.527-10.828-25.01-31.345-30.55-65.682H238.426z" fill="#ffffff"/><path d="M27.539,268.319V120.792c0.692-22.7,16.021-41.75,21.573-47.927h-10   c-5.552,6.177-20.881,25.226-21.573,47.927v147.526c0,3.783,2.417,6.978,5.279,6.978h10   C29.956,275.297,27.539,272.102,27.539,268.319z" fill="#ffffff"/><path d="M61.438,29.735h15.5c-0.032-4.416-3.631-8-8.055-8H51.438c-4.444,0-8.06,3.615-8.06,8.059v28.072h10   V37.793C53.379,33.35,56.995,29.735,61.438,29.735z" fill="#ffffff"/><path d="M211.86,89.766l-2.094-6.18l51.558-17.468c-0.372-1.361-0.787-2.727-1.25-4.093l-2.093-6.179   l-61.215,20.739l2.094,6.18c6.485,19.14,22.415,33.538,34.695,37.186C224.712,113.186,216.185,102.531,211.86,89.766z" fill="#ffffff"/><path d="M126.695,189.845c11.876-1.746,19.952-1.198,26.167,0.276c-7.744-3.577-16.955-7.249-37.167-4.276   c-16.67,2.451-26.558,10.911-32.024,17.858h14.54C104.066,197.807,113.137,191.839,126.695,189.845z" fill="#ffffff"/><path d="M196.366,189.411c1.958-3.364,3.142-7.676,2.883-12.533c-3.611-3.417-7.641-5.979-11.5-7.882   c1.331,6.441,0.082,12.178-2.383,16.415c-4.176,7.179-11.983,10.865-19.793,9.503c2.968,1.382,6.042,2.778,9.474,3.671   C183.35,200.743,191.917,197.057,196.366,189.411z" fill="#ffffff"/><path d="M53.379,37.793v20.072h23.562V29.793c0-0.02-0.003-0.039-0.003-0.059h-15.5   C56.995,29.735,53.379,33.35,53.379,37.793z" fill="#ba82aa"/><path d="M76.941,57.866V29.793c0-0.02-0.003-0.039-0.003-0.059c-0.032-4.416-3.631-8-8.055-8H51.438   c-4.444,0-8.06,3.615-8.06,8.059v28.072h10H76.941z" fill="none"/><path d="M27.539,268.319V120.792c0.692-22.7,16.021-41.75,21.573-47.927h-10   c-5.552,6.177-20.881,25.226-21.573,47.927v147.526c0,3.783,2.417,6.978,5.279,6.978h10   C29.956,275.297,27.539,272.102,27.539,268.319z" fill="none"/><path d="M43.711,206.202c1.423-1.59,3.455-2.498,5.588-2.498h16.602c4.197-8.069,14.813-23.534,36.88-30.289   v-52.622c-0.692-22.7-16.021-41.75-21.573-47.927H49.112c-5.552,6.177-20.881,25.226-21.573,47.927v147.526   c0,3.783,2.417,6.978,5.279,6.978h29.685c-9.142-14.789-17.56-35.394-20.657-63.266C41.61,209.912,42.289,207.791,43.711,206.202z" fill="#ffa6bb"/><path d="M76.941,57.866V29.793c0-0.02-0.003-0.039-0.003-0.059c-0.032-4.416-3.631-8-8.055-8H51.438   c-4.444,0-8.06,3.615-8.06,8.059v28.072h10H76.941z" fill="none"/><path d="M43.711,206.202c1.423-1.59,3.455-2.498,5.588-2.498h16.602c4.197-8.069,14.813-23.534,36.88-30.289   v-52.622c-0.692-22.7-16.021-41.75-21.573-47.927H49.112h-10c-5.552,6.177-20.881,25.226-21.573,47.927v147.526   c0,3.783,2.417,6.978,5.279,6.978h10h29.685c-9.142-14.789-17.56-35.394-20.657-63.266   C41.61,209.912,42.289,207.791,43.711,206.202z" fill="none"/><path d="M212.968,248.932c2.55-6.421,8.365-9.402,13.495-12.033c4.701-2.41,9.036-4.652,11.963-9.195H70.885   c5.541,34.337,20.023,54.854,30.55,65.682h78.665C185.171,289.889,201.932,276.716,212.968,248.932z" fill="#ba82aa"/><path d="M76.941,57.866V29.793c0-0.02-0.003-0.039-0.003-0.059c-0.032-4.416-3.631-8-8.055-8H51.438   c-4.444,0-8.06,3.615-8.06,8.059v28.072h10H76.941z" fill="none"/><path d="M43.711,206.202c1.423-1.59,3.455-2.498,5.588-2.498h16.602c4.197-8.069,14.813-23.534,36.88-30.289   v-52.622c-0.692-22.7-16.021-41.75-21.573-47.927H49.112h-10c-5.552,6.177-20.881,25.226-21.573,47.927v147.526   c0,3.783,2.417,6.978,5.279,6.978h10h29.685c-9.142-14.789-17.56-35.394-20.657-63.266   C41.61,209.912,42.289,207.791,43.711,206.202z" fill="none"/><path d="M98.906,293.385h2.529h78.665c5.07-3.496,21.831-16.669,32.867-44.453   c2.55-6.421,8.365-9.402,13.495-12.033c4.701-2.41,9.036-4.652,11.963-9.195c1.483-2.302,2.611-5.184,3.229-9H57.885   C65.851,268.073,92.311,288.895,98.906,293.385z" fill="none"/><path d="M126.695,189.845c-13.558,1.994-22.629,7.962-28.485,13.858h112.96   c-0.593-12.286-5.618-20.862-11.921-26.826c0.259,4.857-0.926,9.169-2.883,12.533c-4.449,7.646-13.016,11.332-21.319,9.174   c-3.431-0.893-6.504-2.288-9.472-3.67c-0.51-0.089-1.02-0.198-1.528-0.33c-3.623-0.942-6.85-2.445-9.971-3.899   c-0.401-0.187-0.806-0.375-1.213-0.564c0,0-0.001,0-0.001,0C146.646,188.647,138.57,188.099,126.695,189.845z" fill="#ffa6bb"/><path d="M249.697,203.704h-23.499c-0.777-23.756-13.893-37.255-25.422-44.545   c-13.359-8.448-27.175-10.247-27.757-10.319c-3.159-0.396-6.224,1.25-7.642,4.102c-1.419,2.851-0.882,6.286,1.337,8.568   c7.02,7.222,7.451,13.325,5.686,16.357c-0.829,1.424-2.464,2.749-4.579,2.2c-2.301-0.599-4.669-1.701-7.412-2.979   c-8.426-3.928-19.794-9.219-42.629-6.637v-49.771c0-0.071-0.001-0.143-0.003-0.214c-0.811-28.383-19.246-50.934-25.837-58.114   v-32.56c0-12.715-10.344-23.059-23.058-23.059H51.438c-12.715,0-23.06,10.344-23.06,23.059v32.56   c-6.591,7.181-25.026,29.731-25.837,58.114c-0.002,0.071-0.003,0.143-0.003,0.214v147.638c0,12.119,9.097,21.978,20.279,21.978   h50.667c10.093,11.65,18.791,16.687,19.578,17.129c1.121,0.629,2.385,0.959,3.67,0.959h85.568c1.285,0,2.549-0.33,3.67-0.959   c1.046-0.587,25.785-14.81,40.937-52.957c0.47-1.183,3.62-2.798,6.398-4.223c8.936-4.582,23.891-12.25,23.891-39.043   C257.197,207.061,253.839,203.704,249.697,203.704z M152.862,190.122c0.408,0.189,0.812,0.377,1.213,0.564   c3.121,1.454,6.348,2.957,9.971,3.899c0.508,0.132,1.018,0.241,1.528,0.33c7.81,1.36,15.615-2.326,19.792-9.504   c2.465-4.237,3.714-9.974,2.383-16.415c3.86,1.903,7.89,4.465,11.5,7.882c6.303,5.964,11.327,14.54,11.921,26.826H98.21H83.67   c5.467-6.947,15.354-15.407,32.024-17.858C135.907,182.873,145.118,186.544,152.862,190.122z M43.379,29.793   c0-4.443,3.616-8.059,8.06-8.059h17.444c4.424,0,8.023,3.584,8.055,8c0,0.02,0.003,0.039,0.003,0.059v28.072H53.379h-10V29.793z    M32.818,275.297h-10c-2.862,0-5.279-3.195-5.279-6.978V120.792c0.692-22.7,16.021-41.75,21.573-47.927h10h32.096   c5.552,6.177,20.881,25.226,21.573,47.927v52.622c-22.066,6.755-32.683,22.22-36.88,30.289H49.3c-2.133,0-4.166,0.908-5.588,2.498   c-1.423,1.59-2.102,3.71-1.866,5.83c3.097,27.871,11.515,48.477,20.657,63.266H32.818z M238.426,227.704   c-2.927,4.543-7.262,6.785-11.963,9.195c-5.13,2.631-10.945,5.612-13.495,12.033c-11.036,27.784-27.796,40.957-32.867,44.453   h-78.665h-2.529c-6.595-4.49-33.055-25.312-41.021-74.682h183.769C241.037,222.52,239.909,225.402,238.426,227.704z" fill="#7f3960"/><path d="M253.993,114.299c8.305-7.868,12.95-27.578,7.331-48.181l-51.558,17.468l2.094,6.18   c4.325,12.765,12.852,23.42,21.695,30.186h0.001c0.894,0.266,1.77,0.479,2.621,0.629c2.848,0.5,5.031,2.546,5.85,5.123   l26.283,61.138l-16.212-64.559C251.121,119.567,251.764,116.412,253.993,114.299z" fill="#ba82aa"/><path d="M305.646,273.935l-38.209-152.15c11.907-14.67,14.879-40.86,6.844-64.573l-4.501-13.282   c-0.639-1.884-1.999-3.437-3.783-4.317c-1.783-0.881-3.845-1.017-5.728-0.379l-1.018,0.345l-11.82-34.507   c-1.342-3.918-5.607-6.005-9.525-4.665c-3.919,1.343-6.007,5.607-4.665,9.526l11.803,34.459l-6.067,2.056l-11.797-34.44   c-1.342-3.918-5.604-6.005-9.525-4.665c-3.919,1.343-6.007,5.608-4.665,9.526l11.78,34.393l-6.067,2.056l-11.773-34.373   c-1.342-3.918-5.604-6.006-9.525-4.665c-3.919,1.343-6.007,5.607-4.665,9.526l11.757,34.325l-6.067,2.056L186.68,25.879   c-1.342-3.918-5.604-6.005-9.525-4.665c-3.919,1.343-6.007,5.607-4.665,9.526l11.745,34.289c-3.522,1.548-5.339,5.555-4.082,9.267   l4.5,13.283c8.436,24.895,28.471,41.897,44.763,46.77l62.066,144.375c1.221,2.84,3.987,4.54,6.894,4.54   C298.98,283.264,307.226,282.773,305.646,273.935z M242.026,125.704c-0.819-2.577-3.002-4.623-5.85-5.123   c-0.85-0.149-1.727-0.363-2.621-0.629c-12.28-3.647-28.21-18.046-34.695-37.186l-2.094-6.18l61.215-20.739l2.093,6.179   c0.463,1.366,0.878,2.731,1.25,4.093c5.619,20.603,0.974,40.312-7.331,48.181c-2.23,2.112-2.873,5.268-1.896,7.983l16.212,64.559   L242.026,125.704z" fill="#7f3960"/></g><g transform="matrix(0.044249926620789894 0.019359342560246635 -0.019359342560246635 0.044249926620789894 242.580928074775 267.728523401122)" id="L1_27"><path d="M292.961,237.984L270.89,364.233c-6.212-3.12-12.983-5.409-20.185-6.669  c-39.706-6.942-77.535,19.628-84.476,59.334c-6.943,39.719,19.628,77.535,59.334,84.476c39.719,6.943,77.533-19.616,84.476-59.334  l12.504-71.527L292.961,237.984z M230.884,470.945c-22.905-4.005-38.226-25.818-34.223-48.723  c4.005-22.905,25.818-38.226,48.723-34.223c22.905,4.005,38.226,25.818,34.223,48.723  C275.602,459.629,253.789,474.95,230.884,470.945z" fill="#fc583d"/><path d="M280.305,310.378l48.078-275.01l0,0c27.498,34.638,38.874,79.382,31.258,122.948l-24.441,139.804" fill="#cccccc"/><g><path d="M125.404,194.831H49.845c-4.796,0-8.684-3.888-8.684-8.684c0-4.796,3.888-8.684,8.684-8.684h75.559   c4.796,0,8.684,3.888,8.684,8.684C134.087,190.943,130.201,194.831,125.404,194.831z" fill="#49db95"/><path d="M132.293,291.589H62.106c-4.796,0-8.684-3.888-8.684-8.684c0-4.796,3.888-8.684,8.684-8.684h70.187   c4.796,0,8.684,3.888,8.684,8.684C140.976,287.702,137.088,291.589,132.293,291.589z" fill="#49db95"/><path d="M127.372,259.333H55.947c-4.796,0-8.684-3.888-8.684-8.684c0-4.796,3.888-8.684,8.684-8.684h71.425   c4.796,0,8.684,3.888,8.684,8.684C136.056,255.445,132.168,259.333,127.372,259.333z" fill="#49db95"/><path d="M125.404,227.088H51.871c-4.796,0-8.684-3.888-8.684-8.684c0-4.796,3.888-8.684,8.684-8.684h73.533   c4.796,0,8.684,3.888,8.684,8.684C134.087,223.2,130.201,227.088,125.404,227.088z" fill="#49db95"/><path d="M126.052,162.575H49.845c-4.796,0-8.684-3.888-8.684-8.684c0-4.796,3.888-8.684,8.684-8.684h76.207   c4.796,0,8.684,3.888,8.684,8.684C134.736,158.688,130.849,162.575,126.052,162.575z" fill="#49db95"/><path d="M127.372,130.329H51.871c-4.796,0-8.684-3.888-8.684-8.684c0-4.796,3.888-8.684,8.684-8.684h75.501   c4.796,0,8.684,3.888,8.684,8.684C136.056,126.441,132.168,130.329,127.372,130.329z" fill="#49db95"/><path d="M129.421,98.074H55.947c-4.796,0-8.684-3.888-8.684-8.684c0-4.796,3.888-8.684,8.684-8.684h73.475   c4.796,0,8.684,3.888,8.684,8.684C138.105,94.186,134.217,98.074,129.421,98.074z" fill="#49db95"/><path d="M132.293,65.816H62.106c-4.796,0-8.684-3.888-8.684-8.684s3.888-8.684,8.684-8.684h70.187   c4.796,0,8.684,3.888,8.684,8.684S137.088,65.816,132.293,65.816z" fill="#49db95"/><path d="M156.973,321.038c-1.358-7.556-7.933-13.054-15.61-13.054H97.218   c-16.004,0-29.744-9.256-32.678-22.023c-17.611-76.633-17.611-155.252,0-231.886c2.934-12.767,16.674-22.023,32.678-22.023h44.145   c7.677,0,14.258-5.5,15.611-13.057c0.02-0.11,0.039-0.22,0.059-0.331C158.785,8.941,151.304,0,141.421,0H58.689   C42.484,0,28.366,10.905,24.122,26.545c-26.967,99.346-3.521,379.131,4.243,462.028C29.609,501.853,40.753,512,54.091,512l0,0   c13.543,0,24.789-10.457,25.771-23.964l9.185-126.299c0.889-12.23,11.071-21.699,23.333-21.699h29.053   c9.877,0,17.349-8.935,15.602-18.656L156.973,321.038z" fill="#49db95"/></g><path d="M485.584,348.728c-22.271-29.354-63.572-37.454-95.264-18.659  c-8.072,4.788-14.826,10.843-20.237,17.721l-191.89-273.2l-0.002,0.012c-10.153,43.041-1.421,88.369,23.997,124.556l164.871,234.734  c23.329,33.214,69.392,42.051,102.542,18.628C503.192,428.784,510.685,381.81,485.584,348.728z M451.673,427.358  c-19.027,13.365-45.287,8.774-58.651-10.254c-13.365-19.027-8.774-45.287,10.254-58.651c19.027-13.365,45.287-8.774,58.651,10.254  C475.291,387.734,470.701,413.993,451.673,427.358z" fill="#e6e6e6"/><path d="M485.606,348.695c-22.26-29.363-63.572-37.465-95.257-18.663  c-8.07,4.781-14.833,10.846-20.243,17.725l-24.749-35.237l-31.993,44.848l53.723,76.487c23.332,33.218,69.39,42.048,102.535,18.629  C503.225,428.742,510.709,381.77,485.606,348.695z M451.701,427.32c-19.029,13.366-45.292,8.774-58.658-10.255  c-13.366-19.029-8.776-45.281,10.252-58.646c19.029-13.366,45.292-8.774,58.658,10.255S470.731,413.955,451.701,427.32z" fill="#fc583d"/><path d="M306.832,309.999c-7.671,0-11.531-9.689-5.984-14.976c2.686-2.561,6.807-3.099,10.076-1.366  c3.275,1.737,5.092,5.496,4.455,9.14C314.662,306.902,311.014,309.999,306.832,309.999z" fill="#666666"/></g></defs><g fi:class="KUsePattern" opacity="0.07"><pattern id="pattern_L1_0" width="350" height="350" patternUnits="userSpaceOnUse"><use xlink:href="#L1_0" x="-350" y="-350"/><use xlink:href="#L1_0" x="0" y="-350"/><use xlink:href="#L1_0" x="350" y="-350"/><use xlink:href="#L1_0" x="-350" y="0"/><use xlink:href="#L1_0" x="0" y="0"/><use xlink:href="#L1_0" x="350" y="0"/><use xlink:href="#L1_0" x="-350" y="350"/><use xlink:href="#L1_0" x="0" y="350"/><use xlink:href="#L1_0" x="350" y="350"/></pattern><rect x="0" y="0" width="100%" height="100%" fill="url(#pattern_L1_0)"/></g><g fi:class="KUsePattern" opacity="0.07"><pattern id="pattern_L1_1" width="350" height="350" patternUnits="userSpaceOnUse"><use xlink:href="#L1_1" x="-350" y="-350"/><use xlink:href="#L1_1" x="0" y="-350"/><use xlink:href="#L1_1" x="350" y="-350"/><use xlink:href="#L1_1" x="-350" y="0"/><use xlink:href="#L1_1" x="0" y="0"/><use xlink:href="#L1_1" x="350" y="0"/><use xlink:href="#L1_1" x="-350" y="350"/><use xlink:href="#L1_1" x="0" y="350"/><use xlink:href="#L1_1" x="350" y="350"/></pattern><rect x="0" y="0" width="100%" height="100%" fill="url(#pattern_L1_1)"/></g><g fi:class="KUsePattern" opacity="0.07"><pattern id="pattern_L1_2" width="350" height="350" patternUnits="userSpaceOnUse"><use xlink:href="#L1_2" x="-350" y="-350"/><use xlink:href="#L1_2" x="0" y="-350"/><use xlink:href="#L1_2" x="350" y="-350"/><use xlink:href="#L1_2" x="-350" y="0"/><use xlink:href="#L1_2" x="0" y="0"/><use xlink:href="#L1_2" x="350" y="0"/><use xlink:href="#L1_2" x="-350" y="350"/><use xlink:href="#L1_2" x="0" y="350"/><use xlink:href="#L1_2" x="350" y="350"/></pattern><rect x="0" y="0" width="100%" height="100%" fill="url(#pattern_L1_2)"/></g><g fi:class="KUsePattern" opacity="0.07"><pattern id="pattern_L1_3" width="350" height="350" patternUnits="userSpaceOnUse"><use xlink:href="#L1_3" x="-350" y="-350"/><use xlink:href="#L1_3" x="0" y="-350"/><use xlink:href="#L1_3" x="350" y="-350"/><use xlink:href="#L1_3" x="-350" y="0"/><use xlink:href="#L1_3" x="0" y="0"/><use xlink:href="#L1_3" x="350" y="0"/><use xlink:href="#L1_3" x="-350" y="350"/><use xlink:href="#L1_3" x="0" y="350"/><use xlink:href="#L1_3" x="350" y="350"/></pattern><rect x="0" y="0" width="100%" height="100%" fill="url(#pattern_L1_3)"/></g><g fi:class="KUsePattern" opacity="0.06"><pattern id="pattern_L1_4" width="350" height="350" patternUnits="userSpaceOnUse"><use xlink:href="#L1_4" x="-350" y="-350"/><use xlink:href="#L1_4" x="0" y="-350"/><use xlink:href="#L1_4" x="350" y="-350"/><use xlink:href="#L1_4" x="-350" y="0"/><use xlink:href="#L1_4" x="0" y="0"/><use xlink:href="#L1_4" x="350" y="0"/><use xlink:href="#L1_4" x="-350" y="350"/><use xlink:href="#L1_4" x="0" y="350"/><use xlink:href="#L1_4" x="350" y="350"/></pattern><rect x="0" y="0" width="100%" height="100%" fill="url(#pattern_L1_4)"/></g><g fi:class="KUsePattern" opacity="0.07"><pattern id="pattern_L1_5" width="350" height="350" patternUnits="userSpaceOnUse"><use xlink:href="#L1_5" x="-350" y="-350"/><use xlink:href="#L1_5" x="0" y="-350"/><use xlink:href="#L1_5" x="350" y="-350"/><use xlink:href="#L1_5" x="-350" y="0"/><use xlink:href="#L1_5" x="0" y="0"/><use xlink:href="#L1_5" x="350" y="0"/><use xlink:href="#L1_5" x="-350" y="350"/><use xlink:href="#L1_5" x="0" y="350"/><use xlink:href="#L1_5" x="350" y="350"/></pattern><rect x="0" y="0" width="100%" height="100%" fill="url(#pattern_L1_5)"/></g><g fi:class="KUsePattern" opacity="0.07"><pattern id="pattern_L1_6" width="350" height="350" patternUnits="userSpaceOnUse"><use xlink:href="#L1_6" x="-350" y="-350"/><use xlink:href="#L1_6" x="0" y="-350"/><use xlink:href="#L1_6" x="350" y="-350"/><use xlink:href="#L1_6" x="-350" y="0"/><use xlink:href="#L1_6" x="0" y="0"/><use xlink:href="#L1_6" x="350" y="0"/><use xlink:href="#L1_6" x="-350" y="350"/><use xlink:href="#L1_6" x="0" y="350"/><use xlink:href="#L1_6" x="350" y="350"/></pattern><rect x="0" y="0" width="100%" height="100%" fill="url(#pattern_L1_6)"/></g><g fi:class="KUsePattern" opacity="0.07"><pattern id="pattern_L1_7" width="350" height="350" patternUnits="userSpaceOnUse"><use xlink:href="#L1_7" x="-350" y="-350"/><use xlink:href="#L1_7" x="0" y="-350"/><use xlink:href="#L1_7" x="350" y="-350"/><use xlink:href="#L1_7" x="-350" y="0"/><use xlink:href="#L1_7" x="0" y="0"/><use xlink:href="#L1_7" x="350" y="0"/><use xlink:href="#L1_7" x="-350" y="350"/><use xlink:href="#L1_7" x="0" y="350"/><use xlink:href="#L1_7" x="350" y="350"/></pattern><rect x="0" y="0" width="100%" height="100%" fill="url(#pattern_L1_7)"/></g><g fi:class="KUsePattern" opacity="0.07"><pattern id="pattern_L1_8" width="350" height="350" patternUnits="userSpaceOnUse"><use xlink:href="#L1_8" x="-350" y="-350"/><use xlink:href="#L1_8" x="0" y="-350"/><use xlink:href="#L1_8" x="350" y="-350"/><use xlink:href="#L1_8" x="-350" y="0"/><use xlink:href="#L1_8" x="0" y="0"/><use xlink:href="#L1_8" x="350" y="0"/><use xlink:href="#L1_8" x="-350" y="350"/><use xlink:href="#L1_8" x="0" y="350"/><use xlink:href="#L1_8" x="350" y="350"/></pattern><rect x="0" y="0" width="100%" height="100%" fill="url(#pattern_L1_8)"/></g><g fi:class="KUsePattern" opacity="0.07"><pattern id="pattern_L1_9" width="350" height="350" patternUnits="userSpaceOnUse"><use xlink:href="#L1_9" x="-350" y="-350"/><use xlink:href="#L1_9" x="0" y="-350"/><use xlink:href="#L1_9" x="350" y="-350"/><use xlink:href="#L1_9" x="-350" y="0"/><use xlink:href="#L1_9" x="0" y="0"/><use xlink:href="#L1_9" x="350" y="0"/><use xlink:href="#L1_9" x="-350" y="350"/><use xlink:href="#L1_9" x="0" y="350"/><use xlink:href="#L1_9" x="350" y="350"/></pattern><rect x="0" y="0" width="100%" height="100%" fill="url(#pattern_L1_9)"/></g><g fi:class="KUsePattern" opacity="0.07"><pattern id="pattern_L1_10" width="350" height="350" patternUnits="userSpaceOnUse"><use xlink:href="#L1_10" x="-350" y="-350"/><use xlink:href="#L1_10" x="0" y="-350"/><use xlink:href="#L1_10" x="350" y="-350"/><use xlink:href="#L1_10" x="-350" y="0"/><use xlink:href="#L1_10" x="0" y="0"/><use xlink:href="#L1_10" x="350" y="0"/><use xlink:href="#L1_10" x="-350" y="350"/><use xlink:href="#L1_10" x="0" y="350"/><use xlink:href="#L1_10" x="350" y="350"/></pattern><rect x="0" y="0" width="100%" height="100%" fill="url(#pattern_L1_10)"/></g><g fi:class="KUsePattern" opacity="0.07"><pattern id="pattern_L1_11" width="350" height="350" patternUnits="userSpaceOnUse"><use xlink:href="#L1_11" x="-350" y="-350"/><use xlink:href="#L1_11" x="0" y="-350"/><use xlink:href="#L1_11" x="350" y="-350"/><use xlink:href="#L1_11" x="-350" y="0"/><use xlink:href="#L1_11" x="0" y="0"/><use xlink:href="#L1_11" x="350" y="0"/><use xlink:href="#L1_11" x="-350" y="350"/><use xlink:href="#L1_11" x="0" y="350"/><use xlink:href="#L1_11" x="350" y="350"/></pattern><rect x="0" y="0" width="100%" height="100%" fill="url(#pattern_L1_11)"/></g><g fi:class="KUsePattern" opacity="0.07"><pattern id="pattern_L1_12" width="350" height="350" patternUnits="userSpaceOnUse"><use xlink:href="#L1_12" x="-350" y="-350"/><use xlink:href="#L1_12" x="0" y="-350"/><use xlink:href="#L1_12" x="350" y="-350"/><use xlink:href="#L1_12" x="-350" y="0"/><use xlink:href="#L1_12" x="0" y="0"/><use xlink:href="#L1_12" x="350" y="0"/><use xlink:href="#L1_12" x="-350" y="350"/><use xlink:href="#L1_12" x="0" y="350"/><use xlink:href="#L1_12" x="350" y="350"/></pattern><rect x="0" y="0" width="100%" height="100%" fill="url(#pattern_L1_12)"/></g><g fi:class="KUsePattern" opacity="0.07"><pattern id="pattern_L1_13" width="350" height="350" patternUnits="userSpaceOnUse"><use xlink:href="#L1_13" x="-350" y="-350"/><use xlink:href="#L1_13" x="0" y="-350"/><use xlink:href="#L1_13" x="350" y="-350"/><use xlink:href="#L1_13" x="-350" y="0"/><use xlink:href="#L1_13" x="0" y="0"/><use xlink:href="#L1_13" x="350" y="0"/><use xlink:href="#L1_13" x="-350" y="350"/><use xlink:href="#L1_13" x="0" y="350"/><use xlink:href="#L1_13" x="350" y="350"/></pattern><rect x="0" y="0" width="100%" height="100%" fill="url(#pattern_L1_13)"/></g><g fi:class="KUsePattern" opacity="0.07"><pattern id="pattern_L1_14" width="350" height="350" patternUnits="userSpaceOnUse"><use xlink:href="#L1_14" x="-350" y="-350"/><use xlink:href="#L1_14" x="0" y="-350"/><use xlink:href="#L1_14" x="350" y="-350"/><use xlink:href="#L1_14" x="-350" y="0"/><use xlink:href="#L1_14" x="0" y="0"/><use xlink:href="#L1_14" x="350" y="0"/><use xlink:href="#L1_14" x="-350" y="350"/><use xlink:href="#L1_14" x="0" y="350"/><use xlink:href="#L1_14" x="350" y="350"/></pattern><rect x="0" y="0" width="100%" height="100%" fill="url(#pattern_L1_14)"/></g><g fi:class="KUsePattern" opacity="0.07"><pattern id="pattern_L1_15" width="350" height="350" patternUnits="userSpaceOnUse"><use xlink:href="#L1_15" x="-350" y="-350"/><use xlink:href="#L1_15" x="0" y="-350"/><use xlink:href="#L1_15" x="350" y="-350"/><use xlink:href="#L1_15" x="-350" y="0"/><use xlink:href="#L1_15" x="0" y="0"/><use xlink:href="#L1_15" x="350" y="0"/><use xlink:href="#L1_15" x="-350" y="350"/><use xlink:href="#L1_15" x="0" y="350"/><use xlink:href="#L1_15" x="350" y="350"/></pattern><rect x="0" y="0" width="100%" height="100%" fill="url(#pattern_L1_15)"/></g><g fi:class="KUsePattern" opacity="0.07"><pattern id="pattern_L1_16" width="350" height="350" patternUnits="userSpaceOnUse"><use xlink:href="#L1_16" x="-350" y="-350"/><use xlink:href="#L1_16" x="0" y="-350"/><use xlink:href="#L1_16" x="350" y="-350"/><use xlink:href="#L1_16" x="-350" y="0"/><use xlink:href="#L1_16" x="0" y="0"/><use xlink:href="#L1_16" x="350" y="0"/><use xlink:href="#L1_16" x="-350" y="350"/><use xlink:href="#L1_16" x="0" y="350"/><use xlink:href="#L1_16" x="350" y="350"/></pattern><rect x="0" y="0" width="100%" height="100%" fill="url(#pattern_L1_16)"/></g><g fi:class="KUsePattern" opacity="0.07"><pattern id="pattern_L1_17" width="350" height="350" patternUnits="userSpaceOnUse"><use xlink:href="#L1_17" x="-350" y="-350"/><use xlink:href="#L1_17" x="0" y="-350"/><use xlink:href="#L1_17" x="350" y="-350"/><use xlink:href="#L1_17" x="-350" y="0"/><use xlink:href="#L1_17" x="0" y="0"/><use xlink:href="#L1_17" x="350" y="0"/><use xlink:href="#L1_17" x="-350" y="350"/><use xlink:href="#L1_17" x="0" y="350"/><use xlink:href="#L1_17" x="350" y="350"/></pattern><rect x="0" y="0" width="100%" height="100%" fill="url(#pattern_L1_17)"/></g><g fi:class="KUsePattern" opacity="0.07"><pattern id="pattern_L1_18" width="350" height="350" patternUnits="userSpaceOnUse"><use xlink:href="#L1_18" x="-350" y="-350"/><use xlink:href="#L1_18" x="0" y="-350"/><use xlink:href="#L1_18" x="350" y="-350"/><use xlink:href="#L1_18" x="-350" y="0"/><use xlink:href="#L1_18" x="0" y="0"/><use xlink:href="#L1_18" x="350" y="0"/><use xlink:href="#L1_18" x="-350" y="350"/><use xlink:href="#L1_18" x="0" y="350"/><use xlink:href="#L1_18" x="350" y="350"/></pattern><rect x="0" y="0" width="100%" height="100%" fill="url(#pattern_L1_18)"/></g><g fi:class="KUsePattern" opacity="0.07"><pattern id="pattern_L1_20" width="350" height="350" patternUnits="userSpaceOnUse"><use xlink:href="#L1_20" x="-350" y="-350"/><use xlink:href="#L1_20" x="0" y="-350"/><use xlink:href="#L1_20" x="350" y="-350"/><use xlink:href="#L1_20" x="-350" y="0"/><use xlink:href="#L1_20" x="0" y="0"/><use xlink:href="#L1_20" x="350" y="0"/><use xlink:href="#L1_20" x="-350" y="350"/><use xlink:href="#L1_20" x="0" y="350"/><use xlink:href="#L1_20" x="350" y="350"/></pattern><rect x="0" y="0" width="100%" height="100%" fill="url(#pattern_L1_20)"/></g><g fi:class="KUsePattern" opacity="0.07"><pattern id="pattern_L1_21" width="350" height="350" patternUnits="userSpaceOnUse"><use xlink:href="#L1_21" x="-350" y="-350"/><use xlink:href="#L1_21" x="0" y="-350"/><use xlink:href="#L1_21" x="350" y="-350"/><use xlink:href="#L1_21" x="-350" y="0"/><use xlink:href="#L1_21" x="0" y="0"/><use xlink:href="#L1_21" x="350" y="0"/><use xlink:href="#L1_21" x="-350" y="350"/><use xlink:href="#L1_21" x="0" y="350"/><use xlink:href="#L1_21" x="350" y="350"/></pattern><rect x="0" y="0" width="100%" height="100%" fill="url(#pattern_L1_21)"/></g><g fi:class="KUsePattern" opacity="0.07"><pattern id="pattern_L1_23" width="350" height="350" patternUnits="userSpaceOnUse"><use xlink:href="#L1_23" x="-350" y="-350"/><use xlink:href="#L1_23" x="0" y="-350"/><use xlink:href="#L1_23" x="350" y="-350"/><use xlink:href="#L1_23" x="-350" y="0"/><use xlink:href="#L1_23" x="0" y="0"/><use xlink:href="#L1_23" x="350" y="0"/><use xlink:href="#L1_23" x="-350" y="350"/><use xlink:href="#L1_23" x="0" y="350"/><use xlink:href="#L1_23" x="350" y="350"/></pattern><rect x="0" y="0" width="100%" height="100%" fill="url(#pattern_L1_23)"/></g><g fi:class="KUsePattern" opacity="0.07"><pattern id="pattern_L1_24" width="350" height="350" patternUnits="userSpaceOnUse"><use xlink:href="#L1_24" x="-350" y="-350"/><use xlink:href="#L1_24" x="0" y="-350"/><use xlink:href="#L1_24" x="350" y="-350"/><use xlink:href="#L1_24" x="-350" y="0"/><use xlink:href="#L1_24" x="0" y="0"/><use xlink:href="#L1_24" x="350" y="0"/><use xlink:href="#L1_24" x="-350" y="350"/><use xlink:href="#L1_24" x="0" y="350"/><use xlink:href="#L1_24" x="350" y="350"/></pattern><rect x="0" y="0" width="100%" height="100%" fill="url(#pattern_L1_24)"/></g><g fi:class="KUsePattern" opacity="0.07"><pattern id="pattern_L1_26" width="350" height="350" patternUnits="userSpaceOnUse"><use xlink:href="#L1_26" x="-350" y="-350"/><use xlink:href="#L1_26" x="0" y="-350"/><use xlink:href="#L1_26" x="350" y="-350"/><use xlink:href="#L1_26" x="-350" y="0"/><use xlink:href="#L1_26" x="0" y="0"/><use xlink:href="#L1_26" x="350" y="0"/><use xlink:href="#L1_26" x="-350" y="350"/><use xlink:href="#L1_26" x="0" y="350"/><use xlink:href="#L1_26" x="350" y="350"/></pattern><rect x="0" y="0" width="100%" height="100%" fill="url(#pattern_L1_26)"/></g><g fi:class="KUsePattern" opacity="0.07"><pattern id="pattern_L1_27" width="350" height="350" patternUnits="userSpaceOnUse"><use xlink:href="#L1_27" x="-350" y="-350"/><use xlink:href="#L1_27" x="0" y="-350"/><use xlink:href="#L1_27" x="350" y="-350"/><use xlink:href="#L1_27" x="-350" y="0"/><use xlink:href="#L1_27" x="0" y="0"/><use xlink:href="#L1_27" x="350" y="0"/><use xlink:href="#L1_27" x="-350" y="350"/><use xlink:href="#L1_27" x="0" y="350"/><use xlink:href="#L1_27" x="350" y="350"/></pattern><rect x="0" y="0" width="100%" height="100%" fill="url(#pattern_L1_27)"/></g></svg>