<?xml version="1.0"?>
<svg xmlns="http://www.w3.org/2000/svg" xmlns:xlink="http://www.w3.org/1999/xlink" version="1.1" id="Capa_1" x="0px" y="0px" viewBox="0 0 37.555 37.555" style="enable-background:new 0 0 37.555 37.555;" xml:space="preserve" width="512px" height="512px" class=""><g><g>
	<g>
		<path d="M25.833,20.181c0.981,0.16,2.116-0.346,2.449-1.312c0.29-0.843-0.163-1.646-0.398-2.426    c-0.229-0.753-0.311-1.592-0.269-2.376c0.05-0.914,0.261-1.875,0.63-2.716c0.018-0.04-1.643,0.363-1.749,0.411    c-0.978,0.443-1.849,1.098-2.297,2.098c-0.509,1.138-0.825,3.045-0.377,4.475C24.115,19.269,24.733,20,25.833,20.181z" data-original="#010002" class="active-path" data-old_color="#ffffff" fill="#ffffff"/>
		<path d="M23.669,21.578c-0.586,0.102-1.086,0.233-1.492,0.376c-0.83,0.294-1.293,0.63-1.363,0.822    c0.045,0.099,0.26,0.262,0.605,0.44c0.282,0.144,0.664,0.293,1.142,0.432c0.86,0.249,2.019,0.451,3.504,0.451    c3.327,0,5.106-1,5.251-1.398c-0.146-0.322-1.924-1.322-5.251-1.322C25.142,21.379,24.351,21.459,23.669,21.578z" data-original="#010002" class="active-path" data-old_color="#ffffff" fill="#ffffff"/>
		<path d="M22.139,17.747c0.006-0.132,0.039-0.255,0.039-0.388c0-2.756-1.293-5.191-3.275-6.814    c0.103,0.262,0.167,0.54,0.167,0.841c0,2.537-3.928,3.693-7.579,3.693s-7.579-1.156-7.579-3.693c0-0.301,0.063-0.579,0.167-0.841    c-1.982,1.623-3.275,4.058-3.275,6.814c-0.001,4.876,3.964,8.842,8.839,8.842h3.694c0.006,0,0.012-0.002,0.018-0.002    C14.347,21.914,17.793,18.571,22.139,17.747z" data-original="#010002" class="active-path" data-old_color="#ffffff" fill="#ffffff"/>
		<path d="M33.477,21.898c0.103,0.262,0.167,0.541,0.167,0.841c0,2.536-3.929,3.692-7.579,3.692    c-1.828,0-3.727-0.291-5.165-0.899c-0.408-0.172-0.765-0.377-1.087-0.601c-0.346-0.241-0.616-0.52-0.835-0.82    c-0.293-0.406-0.492-0.854-0.492-1.372c0-0.301,0.063-0.579,0.167-0.841c-1.238,1.013-2.189,2.339-2.735,3.875    c-0.154,0.434-0.293,0.872-0.378,1.334c-0.073,0.396-0.105,0.805-0.123,1.217c-0.006,0.132-0.039,0.255-0.039,0.389    c0,4.875,3.965,8.842,8.839,8.842h3.694c4.876,0,8.841-3.967,8.841-8.842C36.753,25.956,35.46,23.521,33.477,21.898z" data-original="#010002" class="active-path" data-old_color="#ffffff" fill="#ffffff"/>
		<path d="M8.859,7.904c0.234,0.245,0.54,0.455,0.895,0.613c0.932,0.416,2.169,0.486,3.16,0    c0.319-0.156,0.607-0.377,0.855-0.656c0.114-0.129,0.213-0.278,0.307-0.435c0.189-0.318,0.344-0.68,0.427-1.123    c0.052-0.278,0.083-0.579,0.083-0.911C14.586-0.146,8.677,0,8.677,0s1.846,3.109,0,5.975C8.606,6.085,8.575,6.19,8.532,6.297    c-0.17,0.418-0.165,0.816,0.007,1.165C8.617,7.62,8.728,7.767,8.859,7.904z" data-original="#010002" class="active-path" data-old_color="#ffffff" fill="#ffffff"/>
		<path d="M11.49,12.747c3.329,0,5.106-1,5.251-1.397c-0.146-0.323-1.924-1.323-5.251-1.323    s-5.106,1-5.251,1.397C6.384,11.747,8.161,12.747,11.49,12.747z" data-original="#010002" class="active-path" data-old_color="#ffffff" fill="#ffffff"/>
	</g>
</g></g> </svg>
