<svg xmlns="http://www.w3.org/2000/svg" xmlns:xlink="http://www.w3.org/1999/xlink" xmlns:fi="http://pattern.flaticon.com/" x="0" y="0" width="700" height="350" viewBox="0 0 700 350"><rect x="0px" y="0px" width="100%" height="100%" opacity="1" fill="#ffffff"/><defs><g transform="matrix(1.9346725940704346 0 0 1.9346725940704346 237 240.99999967527174)" id="L1_1"><path d="M30.935,15.952C27.242-0.025,13.748,2.728,13.748,2.728s-1.376-0.471,0.873-1.545c-4.096-1.04-6.646,2.686-6.646,2.686    S7.102,3.902,7.102,2.325C6.061,2.458,7.035,5.21,7.035,5.21S4.148,5.278,3.476,4.809C3.141,5.882,5.799,5.666,6.565,5.95    C-6.93,6.889,4.551,25.352,4.618,23.875c-2.014-8.66,2.82-11.815,2.82-11.815s4.095,4.129,7.385,3.761    c-3.491-1.343-2.809-2.015-2.809-2.015s5.595,0.47,10.999-2.081c2.282,0.1,4.162,5.019,4.699,11.145    c2.535-1.829,1.88-6.916,1.88-6.916S31.405,17.43,30.935,15.952z"/><path d="M21.292,27.249c-0.867-0.718-2.882-3.035-5.417-0.542c-2.459-2.24-4.407-0.011-5.255,0.693    c-3.172,1.46-3.323-0.327-3.399-0.807c-2.391,4.306,5.237,3.323,6.345,3.323c1.053,0,2.432-0.63,2.567-0.692    c0.51,0.208,1.447,0.541,2.213,0.541c1.106,0,8.735,0.982,6.344-3.322C24.616,26.921,24.464,28.709,21.292,27.249z"/></g><g transform="matrix(0.1574026495218277 0 0 0.1574026495218277 199 129)" id="L1_3"><path d="M306.501,325.885c1.635-5.92,2.008-12.191,0.771-18.449c-3.375-16.851-16.908-29.299-32.93-31.073    c-0.116-0.047-0.14-0.14-0.269-0.163c-17.761-2.569-31.072-29.356-39.854-39.936c-8.758-10.592-24.616-27.769-32.743-35.651    c-0.49-0.49-1.284-1.553-2.335-3.094L224.188,27.85l-42.353,135.536c0,0-0.397,1.244-1.086,3.41    c-27.698-48.203-72.439-130.48-72.439-130.48s55.373,165.838,57.299,171.595c-10.007,24.183-20.65,54.999-45.307,56.261    c-0.082,0.023-0.07,0.116-0.146,0.163c-18.817,0.888-33.922,18.403-33.922,39.959c0,22.116,15.893,40.122,35.394,40.122    c11.992,0,23.196-8.302,33.268-16.744c2.545-10.311,2.125-14.854,2.125-23.378c0-5.581-1.017-10.872-2.832-15.694l0,0    c-2.989-11.957,25.433-70.693,30.874-74.266c27.19,16.698,61.977,59.518,53.534,81.471c0.035,0.012,0.128,0.012,0.175,0.023    c-4.122,7.94-5.559,17.037-3.736,26.074c3.644,18.217,19.115,31.436,36.782,31.436c2.324,0,4.659-0.223,6.937-0.689    c8.221-1.646,15.344-6.2,20.622-12.763c3.585,0.817,8.478,2.499,11.945,5.944c12.401,13.311,24.207,3.631,26.916,0    C340.819,342.385,312.55,339.441,306.501,325.885z M121.629,332.318c-12.839,0-23.29-12.564-23.29-28.013    s10.451-28.036,23.29-28.036c4.245,0,8.191,1.494,11.625,3.876c0.707,0.561,1.413,1.098,2.125,1.635    c5.768,5.114,9.558,13.254,9.558,22.514C144.937,319.754,134.474,332.318,121.629,332.318z M180.721,201.734    c-4.233,0-7.672-3.445-7.672-7.678s3.439-7.678,7.672-7.678c4.233,0,7.678,3.445,7.678,7.678S184.971,201.734,180.721,201.734z     M291.904,329.844c-3.597,5.768-9.132,9.645-15.53,10.93c-1.495,0.303-3.036,0.455-4.555,0.455    c-11.934,0-22.396-9.143-24.918-21.707c-1.402-7.03-0.164-14.153,3.502-20.027c3.609-5.756,9.12-9.645,15.531-10.918    c1.506-0.303,3.036-0.467,4.554-0.467c11.935,0,22.409,9.143,24.931,21.708C296.82,316.847,295.56,323.958,291.904,329.844z"/><path d="M134.579,133.96l-3.264-10.848c-8.787-0.607-17.323-1.179-25.444-1.897c-9.733-0.899-18.917-1.781-27.36-2.861    c-8.431-1.121-16.144-2.306-22.91-3.643c-6.755-1.39-12.611-2.814-17.335-4.292c-4.723-1.536-8.372-2.942-10.789-4.069    c-2.412-1.174-3.679-1.851-3.679-1.851s1.133,0.87,3.346,2.4c2.26,1.483,5.657,3.614,10.247,5.739    c9.172,4.332,23.004,8.91,39.936,12.535c8.466,1.839,17.685,3.55,27.47,4.986C114.267,131.566,124.25,132.909,134.579,133.96z"/><path d="M170.451,137.142c4.881,0.321,9.768,0.642,14.696,0.969l3.649-11.707c-6.493-0.35-12.961-0.695-19.384-1.027    c-1.915-0.123-3.801-0.228-5.705-0.339L170.451,137.142z"/><path d="M380.662,160.327c-0.315-0.637-0.946-1.46-1.833-2.499c-1.822-2.02-5.021-4.607-9.61-6.89    c-4.555-2.306-10.358-4.531-17.177-6.469c-6.785-1.985-14.551-3.801-23.051-5.319c-8.524-1.582-17.773-3.001-27.594-4.186    c-9.797-1.208-20.166-2.359-30.874-3.229c-10.708-0.87-21.777-1.874-33.034-2.499c-7.637-0.467-15.355-0.935-23.098-1.401    l-1.576,11.899c8.045,0.397,16.079,0.776,24.02,1.173c11.233,0.619,22.292,0.911,32.953,1.472    c10.685,0.572,20.995,0.992,30.758,1.588c9.75,0.648,18.963,1.267,27.44,2.067c16.933,1.629,30.944,3.889,40.263,7.117    c4.624,1.641,8.058,3.48,10.112,5.155c1.005,0.847,1.752,1.553,2.149,2.114c0.443,0.525,0.677,0.817,0.677,0.817    S381.024,160.922,380.662,160.327z"/><path d="M44.601,100.745c6.854,2.306,14.719,4.484,23.413,6.334c8.682,1.88,18.14,3.562,28.194,4.893    c10.048,1.36,20.662,2.604,31.662,3.457c0.374,0.023,0.765,0.046,1.15,0.082l-3.252-10.836    c-9.914-0.502-19.501-0.969-28.604-1.658c-9.96-0.794-19.349-1.641-27.967-2.75c-8.611-1.162-16.464-2.44-23.365-3.958    c-6.878-1.542-12.804-3.193-17.592-4.904c-4.782-1.699-8.401-3.392-10.842-4.612c-2.406-1.343-3.684-2.061-3.684-2.061    s1.15,0.911,3.311,2.61c2.271,1.564,5.611,3.97,10.264,6.276C31.914,95.945,37.723,98.485,44.601,100.745z"/><path d="M194.856,106.939c-10.941-0.315-21.86-0.625-32.62-0.935c-3.118-0.123-6.218-0.228-9.301-0.327l6.609,11.875    c0.742,0.035,1.483,0.082,2.224,0.105c9.698,0.397,19.53,0.794,29.368,1.197L194.856,106.939z"/><path d="M297.626,113.368c-10.077-1.244-20.691-2.318-31.691-3.071s-22.35-1.565-33.887-1.985    c-4.975-0.193-9.973-0.38-14.994-0.561l-1.564,11.823c5.418,0.146,10.802,0.274,16.149,0.42    c11.49,0.409,22.806,0.502,33.712,0.946c10.93,0.456,21.463,0.812,31.435,1.419c9.949,0.671,19.36,1.413,27.99,2.417    c8.618,1.051,16.453,2.318,23.296,3.889c6.843,1.6,12.705,3.416,17.282,5.488c4.577,2.067,7.964,4.233,9.995,6.025    c1.098,0.823,1.764,1.629,2.277,2.113c0.502,0.502,0.759,0.765,0.759,0.765s-0.222-0.286-0.642-0.87    c-0.433-0.561-0.993-1.483-1.95-2.487c-1.799-2.107-4.835-4.974-9.318-7.689c-8.922-5.558-23.19-10.591-40.602-14.106    C317.174,116.117,307.669,114.564,297.626,113.368z"/><path d="M148.054,94.141c11.531,0.467,23.249,0.946,34.956,1.413c5.091,0.128,10.188,0.263,15.256,0.391l3.678-11.776    c-6.177-0.239-12.372-0.467-18.566-0.707c-11.683-0.333-23.366-0.671-34.868-0.993c-2.908-0.105-5.798-0.216-8.682-0.298    l6.626,11.888C146.991,94.094,147.528,94.118,148.054,94.141z"/><path d="M54.311,83.562c8.682,1.875,18.14,3.55,28.194,4.887c10.048,1.366,20.674,2.61,31.662,3.456    c2.61,0.205,5.29,0.397,7.929,0.602l-3.322-11.064c-1.302-0.047-2.633-0.082-3.923-0.158c-10.907-0.549-21.428-1.04-31.389-1.792    c-9.96-0.8-19.36-1.646-27.978-2.762c-8.624-1.156-16.476-2.44-23.366-3.958c-6.878-1.542-12.804-3.188-17.592-4.887    c-4.782-1.699-8.401-3.398-10.854-4.618C1.279,61.93,0,61.212,0,61.212s1.15,0.911,3.311,2.604    c2.26,1.582,5.611,3.97,10.258,6.282c4.63,2.341,10.439,4.863,17.305,7.135C37.734,79.533,45.617,81.705,54.311,83.562z"/><path d="M218.502,96.488c11.292,0.379,22.396,0.49,33.128,0.917c10.918,0.444,21.451,0.812,31.423,1.425    c9.961,0.671,19.361,1.413,27.979,2.417c8.618,1.051,16.465,2.318,23.308,3.883c6.831,1.605,12.705,3.421,17.282,5.488    s7.94,4.233,9.995,6.025c1.086,0.829,1.775,1.629,2.289,2.119c0.49,0.502,0.747,0.765,0.747,0.765s-0.21-0.286-0.63-0.876    c-0.433-0.561-1.005-1.495-1.962-2.487c-1.798-2.102-4.823-4.975-9.318-7.684c-8.909-5.576-23.19-10.597-40.59-14.112    c-8.723-1.792-18.204-3.345-28.271-4.554c-10.077-1.244-20.68-2.324-31.691-3.077c-10.451-0.724-21.217-1.483-32.17-1.897    L218.502,96.488z"/></g><path d="M300.574,44.227c-5.29-1.985-83.971-31.213-150.086-40.8c-0.707-0.111-1.372-0.169-2.067-0.263   c-3.672-0.718-7.976-1.197-12.71-1.506c-56.155-5.599-95.326,4.77-102.228,4.91c-39.9,0-31.12,127.059-0.403,128.051   c0.753,0.023,1.424,0.052,2.137,0.076c1.196,0.047,4.56,0.193,9.47,0.368c20.295,0.993,24.382,2.896,32.071,12.115   c8.968,10.772,25.042,33.25,25.042,63.162c0,29.904,0,95.74,0,104.721c0,5.324,3.241,8.29,9.447,9.855   c0.128,0.058,0.14,0.116,0.298,0.174c14.526,5.629,8.092,47.211,8.092,47.211h12.868c0,0-5.091-43.17,9.879-46.334   c14.906-0.97,30.069-3.702,29.94-9.984c-0.181-8.35-1.792-66.42,0-105.316c0.607-13.335-1.711-26.086-4.688-37.221h6.458v-16.751   h-11.589c-3.859-11.396-6.709-19.01-4.017-20.592c0.205-0.047,0.456-0.105,0.601-0.152c0.105-0.047,0.216-0.181,0.321-0.251   c38.225-7.812,131.565-33.181,140.651-35.668v0.345l65.496,22.799l0.035-101.672L300.574,44.227z" transform="matrix(0.16116034984588623 0 0 0.16116034984588623 32.99999915406556 191)" id="L1_5"/><g transform="matrix(0.1579778790473938 0 0 0.1579778790473938 36.999999537174176 22)" id="L1_6"><path d="M290.931,213.739L290.931,213.739h-0.012c-2.276-0.584-4.542-1.028-6.819-1.332c-0.069-0.011-0.14-0.023-0.222-0.046    c-2.323-0.292-4.636-0.467-6.901-0.467c-1.564,0-3.117,0.094-4.647,0.233c-0.467,0.047-0.91,0.117-1.378,0.164    c-1.086,0.14-2.16,0.304-3.223,0.514c-0.502,0.093-0.992,0.198-1.483,0.327c-1.062,0.232-2.102,0.514-3.141,0.84    c-0.42,0.141-0.841,0.258-1.262,0.374c-1.4,0.491-2.79,1.028-4.133,1.658c-0.012,0-0.023,0.012-0.023,0.012l0,0    c-2.078,0.981-4.053,2.16-5.955,3.491l0,0l0,0c-1.379,0.969-2.709,1.985-3.982,3.13c-0.292,0.269-0.537,0.561-0.829,0.841l0,0    c-1.413,1.378-2.709,2.826-3.877,4.379l0,0l0,0c-1.81,2.37-3.362,4.916-4.636,7.613c-1.109-1.366-2.615-3.234-4.426-5.477l0,0    c-1.389-1.729-3.047-3.76-4.799-5.943c-3.06-3.795-6.668-8.232-10.673-13.207c-2.23-2.756-4.578-5.652-7.053-8.723l0,0    c-2.406-2.978-4.905-6.072-7.497-9.284l0,0c-0.128-0.175-0.257-0.338-0.397-0.49l0,0c-5.103-6.317-10.515-13.038-16.185-20.044    c26.998-63.196,53.586-136.604,49.277-172.295c-4.611,10.065-38.557,84.087-68.24,148.848    C124.427,94.398,75.447,33.765,68.657,25.357c4.52,34.769,46.428,97.095,87.263,150.769    c-11.829,25.795-21.988,47.982-27.92,60.896c-1.185-1.424-2.452-2.803-3.854-4.075c-7.964-7.251-18.246-10.731-29.21-10.731    c-16.692,0-34.949,8.104-48.845,23.354c-23.016,25.281-25.398,60.604-5.295,78.914c7.964,7.239,18.245,10.743,29.21,10.743    c16.704,0,34.95-8.115,48.846-23.378c8.01-8.805,13.464-18.823,16.406-28.913l0.251,0.654c0,0,18.356-35.825,39.457-82.907    c5.611,7.076,11.041,13.86,16.254,20.283l0,0c0.228,0.269,0.45,0.549,0.677,0.829c0.625,0.771,1.244,1.541,1.868,2.312    c0.094,0.116,0.193,0.232,0.274,0.338l0,0c2.645,3.234,5.202,6.364,7.689,9.377l0,0c0.047,0.059,0.082,0.105,0.129,0.164    c4.857,5.885,9.376,11.303,13.44,16.137l0,0c0.187,0.223,0.35,0.421,0.526,0.631c2.604,3.095,5.032,5.955,7.228,8.536    c0.105,0.116,0.211,0.245,0.304,0.362l0,0c3.024,3.561,5.605,6.562,7.672,8.968l0,0c0.035,0.023,0.047,0.046,0.07,0.069    c3.573,4.135,5.628,6.481,5.628,6.481l0.176-1.576c3.001,9.762,8.36,19.431,16.126,27.954l0,0l0,0    c13.907,15.274,32.136,23.379,48.845,23.379c10.965,0,21.241-3.504,29.205-10.744c20.096-18.309,17.714-53.621-5.302-78.914    C315.71,224.177,303.344,216.926,290.931,213.739z M111.699,276.094c-2.009,6.912-5.798,13.557-10.977,19.244    c-8.752,9.598-20.23,15.344-30.717,15.344c-5.249,0-9.528-1.473-12.699-4.345c-9.721-8.851-6.481-29.543,6.924-44.256    c8.752-9.634,20.243-15.367,30.717-15.367c5.249,0,9.528,1.472,12.711,4.344c0.42,0.386,0.911,0.935,1.471,1.589l6.96,8.406    L111.699,276.094z M173.057,182.666c-3.387,0-6.137-2.738-6.137-6.131c0-3.398,2.738-6.136,6.137-6.136    c3.38,0,6.13,2.738,6.13,6.136C179.187,179.927,176.437,182.666,173.057,182.666z M314.589,296.015    c-3.164,2.896-7.438,4.344-12.693,4.344c-10.475,0-21.965-5.733-30.723-15.344c-2.686-2.966-4.985-6.2-6.877-9.575    c5.395-12.494,11.046-25.607,16.721-38.744c9.296,1.249,19.011,6.679,26.636,15.062    C321.081,266.495,324.315,287.175,314.589,296.015z"/><path d="M286.505,0.042c-2.312-0.356-2.837,1.675-1.12,2.68c12.506,7.427,23.19,14.649,30.792,22.333L282.08,10.352l-2.195,5.091    l43.695,18.858c1.472,2.423,2.593,4.939,3.387,7.508l-49.277-21.264l-2.195,5.108l52.64,22.718    c0.141,1.926,0.035,3.912-0.233,5.955l-54.625-23.564l-2.195,5.103l55.595,23.985c-0.409,1.354-0.946,2.738-1.541,4.139    l-55.806-24.084l-2.195,5.097l55.84,24.102c-0.595,1.39-1.249,2.931-2.043,4.747l-55.84-24.09l-2.207,5.103l55.852,24.107    c-0.7,1.588-1.425,3.299-2.207,5.097l-55.852-24.096l-2.184,5.08l55.84,24.107c-0.724,1.646-1.448,3.333-2.207,5.103    l-55.84-24.102l-2.207,5.103l55.84,24.107c-0.082,0.216-0.175,0.403-0.269,0.619c0,0-0.631,1.495-1.764,4.127l-55.852-24.096    l-2.207,5.109l55.84,24.09c-0.665,1.547-1.377,3.217-2.195,5.109L247.62,90.224l-2.207,5.109l55.853,24.102    c-0.515,1.197-1.04,2.405-1.601,3.696l-55.84-24.102l-2.207,5.103l55.84,24.096c-0.677,1.542-1.342,3.106-2.043,4.747    l-55.84-24.107l-2.219,5.108l55.852,24.102c-0.712,1.652-1.459,3.375-2.195,5.109l-55.84-24.107l-2.219,5.091l55.84,24.107    c-0.712,1.676-1.447,3.375-2.195,5.097l-55.84-24.096l-2.195,5.091l55.84,24.107c-0.677,1.565-1.366,3.147-2.043,4.747    l-55.852-24.096l-2.207,5.097l55.84,24.107c-0.725,1.682-1.46,3.393-2.195,5.103l-55.852-24.09l-2.207,5.091l55.84,24.107    c-0.596,1.396-1.203,2.808-1.811,4.221l-55.851-24.107l-2.195,5.103l55.851,24.107c-0.677,1.576-1.365,3.159-2.055,4.747    l-55.84-24.107l-2.195,5.109l55.84,24.102c-0.596,1.343-1.168,2.686-1.752,4.04l-55.839-24.113l-2.184,5.109l53.972,23.29    c4.823-1.39,9.938-2.137,15.298-2.137c5.675,0,11.443,0.934,17.13,2.51c22.058-51.122,41.161-95.384,41.161-95.384    c6.96-16.12,12.344-28.626,14.9-34.5C361.963,49.126,330.423,6.738,286.505,0.042z"/><path d="M239.179,220.137c1.039-1.168,2.055-2.359,3.199-3.41c0.338-0.291,0.688-0.537,1.016-0.828l-16.185-6.983l7.509,9.283    L239.179,220.137z"/><path d="M230.935,280.625l-55.204-23.81l-2.207,5.104l55.846,24.102c-0.735,1.739-1.482,3.433-2.195,5.113l-55.852-24.102    l-2.201,5.092l55.834,24.113c-0.688,1.6-1.366,3.188-2.043,4.752l-55.846-24.102l-2.201,5.092l55.84,24.113    c-0.759,1.74-1.483,3.445-2.207,5.104l-55.834-24.102l-2.213,5.103l55.84,24.09c-0.619,1.472-1.238,2.86-1.821,4.239    l-55.846-24.113l-2.201,5.091l55.84,24.113c-0.725,1.669-1.413,3.258-2.044,4.753l-55.852-24.113l-2.201,5.103L208,335.472    c-0.829,1.927-1.564,3.632-2.195,5.091l-55.84-24.09l-2.213,5.092l55.811,24.102c-0.748,1.786-1.588,3.444-2.476,4.975    l-55.548-23.962l-2.212,5.091l54.514,23.518c-1.226,1.495-2.51,2.791-3.906,3.947l-52.652-22.712l-2.213,5.091l49.289,21.275    c-2.417,1.203-4.998,2.091-7.783,2.698l-43.708-18.87l-2.207,5.091l34.085,14.714c-11.093-0.258-24.02-3.224-38.406-7.381    c-1.804-0.537-1.95,1.519-0.105,2.967c34.985,27.336,87.456,21.217,99.273-6.189c2.942-6.819,10.404-24.125,20.073-46.521    c-0.83-0.841-1.705-1.611-2.5-2.499C240.101,299.145,234.554,290.141,230.935,280.625z"/><path d="M254.639,208.647l-42.458-18.327l2.65,3.275l4.857,6.014l28.819,12.436C250.458,210.772,252.514,209.628,254.639,208.647z    "/><path d="M177.932,251.711l44.665,19.291c-2.324-2.709-5.056-5.908-8.186-9.587l-34.29-14.794L177.932,251.711z"/><path d="M185.983,233.075l7.461,3.2c-1.892-2.288-3.83-4.647-5.804-7.076L185.983,233.075z"/><path d="M182.188,241.868l24.75,10.686c-2.476-2.943-5.126-6.131-7.87-9.436l-14.69-6.352L182.188,241.868z"/></g><path d="M27.476,7.754c0,0,0.887-0.521-0.253-3.069c-1.141-2.546-3.354-1.129-3.354-1.129s1.033-0.91,0.521-1.805   c-0.511-0.896-1.849-0.656-1.849-0.656s0.72-0.384-0.9-0.963c-1.619-0.579-1.956,1.232-2.411,1.23c-0.455,0-2.242-1.865-5.076-1.23   c-1.349,0.229-3.867-0.724-6.003,1.553c-0.495-0.423-3.553,0.443-3.676,2.36c-1-0.468-3.249,2.221-2.237,3.996   c0.547,0.602,1.069,0.62,1.394,0.543c0.013,1.178,0.261,2.216,0.465,2.74c0.013,0.047,0.023,0.097,0.034,0.146   c-0.265,0.054-0.681,0.054-1.013-0.417c-0.14,0.678,0.645,0.778,1.074,0.784c0.046,0.45-0.011,0.938-0.318,1.398   c-0.643,0.966-1.362,1.408-1.594,2.057c-0.331,0.902,1.405,1.061,1.405,1.061l0.004,0.345c0,0-0.556,0.539-0.438,0.962   c0.158,0.562,1.276,0.361,1.276,0.361s-1.074,0.396-1.023,0.919c0.051,0.523,0.5,0.75,0.5,0.75s-1.04,2.044,0.489,2.494   c1.53,0.448,4.632-1.417,5.037,0.765c0.39,1.504,2.132,5.197,1.529,5.891c-0.604,0.691-1.529,1.754-1.529,1.754l15.873,0.494   c0,0-4.9-6.342-5.396-7.062c-0.442-0.643-2.133-3.031-1.196-4.944c0.64,0.232,1.755,0.404,1.82-1.209   c1.236,0.006,1.635-1.568,1.635-1.568s3.244,0.462,2.867-2.883c-0.129-0.513,3.322,0.443,3.878-1.821   C29.566,9.333,27.476,7.754,27.476,7.754z" transform="matrix(1.9300671815872192 0 0 1.9300671815872192 142.00000035340577 303)" id="L1_7"/><g transform="matrix(-0.15791219472885132 0 0 0.15791219472885132 266.1628091575503 70)" id="L1_10"><path d="M315.667,59.371c11.07-13.878,3.644-26.53,3.644-26.53l-5.581,5.295l-7.007-6.609l-154.424,137.51l4.735,4.998    L53.148,264.602l92.821-102.408l4.881,4.805L291.31,15.26l-6.446-7.135l5.395-5.488c0,0-12.494-7.666-26.601,3.141    C249.552,16.591,31.493,259.312,25.526,266.938c-2.546,3.27-1.425,7.251,0.683,10.719L6.621,296.199l12.197,12.893l19.337-18.311    c3.678,2.627,8.139,4.426,11.835,1.658C57.726,286.625,304.586,73.266,315.667,59.371z"/><path d="M372.604,102.716c1.764-2.966,0.27-7.911-3.713-11.63c-3.982-3.708-9.026-4.857-11.863-2.861l-0.082-0.082l-11.572,12.436    l-3.736-3.48l-4.484,4.817l-9.038-8.419l-2.896,3.112l9.015,8.431l-2.161,2.33l-9.049-8.431l-2.896,3.112l9.038,8.419l-3.34,3.584    l-9.038-8.419l-2.884,3.106l9.05,8.431l-2.195,2.335l-9.015-8.431l-2.919,3.118l9.061,8.419l-2.615,2.802l-9.038-8.419    l-2.919,3.106l9.061,8.431l-2.172,2.341l-9.061-8.425l-2.896,3.118l9.062,8.419l-2.628,2.796l-9.049-8.419l-2.908,3.112    l9.05,8.431l-2.184,2.341l-9.038-8.431l-2.896,3.112l9.05,8.431L294.252,148l-9.062-8.419l-2.896,3.112l9.062,8.431l-2.184,2.33    l-9.05-8.431l-2.907,3.124l9.05,8.425l-2.744,2.966l-9.05-8.454l-2.896,3.124l9.037,8.431l-2.195,2.33l-9.037-8.419l-2.896,3.112    l9.038,8.431l-3.036,3.275l-9.236-8.612l-2.908,3.124l9.226,8.606l-2.172,2.335l-9.237-8.6l-2.884,3.1l9.225,8.6l-23.868,25.62    l-2.615-1.857l-12.774,13.709c0,0-15.893-7.263-13.943-3.129c5.5,10.953-24.428,41.209-33.186,44.688    c-16.692,8.863-62.402,60.43-71.026,76.24c-8.513,15.636-18.088,22.326-1.962,37.074c15.858,15.053,21.86,5.01,36.865-4.611    c15.162-9.716,63.365-58.97,71.014-76.252c2.85-8.979,30.921-40.975,42.225-36.27c4.274,1.67-4.11-13.697-4.11-13.697l3.223-3.456    c5.559,7.521,25.13,39.259-3.515,81.145c-0.069,2.429,2.16,6.095,3.655,5.745c31.154-29.695,25.83-94.842,25.83-94.842    s4.577-2.417,4.507-4.822c-0.093-2.23-4.788-12.18-5.512-13.721l8.887-9.552l8.862,8.255l2.908-3.105l-8.863-8.256l2.172-2.324    l8.863,8.244l2.907-3.117l-8.874-8.256l3.035-3.258l9.062,8.431l2.896-3.106l-9.038-8.431l2.172-2.347l9.038,8.431l2.896-3.094    l-9.037-8.443l2.755-2.954l9.05,8.431l2.896-3.118l-9.05-8.425l2.184-2.33l9.05,8.431l2.907-3.112l-9.05-8.425l2.464-2.656    l9.05,8.431l2.896-3.124l-9.039-8.425l2.172-2.347l9.051,8.431l2.896-3.112l-9.05-8.425l2.615-2.814l9.051,8.431l2.896-3.118    l-9.05-8.431l2.184-2.335l9.05,8.442l2.907-3.118l-9.05-8.431l2.616-2.797l9.038,8.425l2.919-3.106l-9.062-8.442l2.172-2.318    l9.062,8.419l2.896-3.124l-9.039-8.419l3.328-3.585l9.051,8.431l2.907-3.112l-9.05-8.425l2.172-2.335l9.062,8.431l2.884-3.124    l-9.05-8.425l4.496-4.823l-4.216-3.923l11.584-12.418L372.604,102.716z"/></g><g transform="matrix(0.15741710364818573 0 0 0.15741710364818573 294.9999988086108 -6)" id="L1_11"><path d="M315.743,282.703c0-38.535-28.842-71.301-69.198-83.959v-54.083H169.19v55.262c-38.4,13.463-65.41,45.459-65.41,82.803    c0,31.096,18.736,58.467,47.169,74.546v23.88h116.987V357.6C296.698,341.555,315.743,314.044,315.743,282.703z"/><path d="M180.82,97.802c1.77,3.538,1.104,22.093,0.765,29.245h-5.488v14.158h64.469v-14.158h-5.979v-26.723l32.976-19.314h34.799    V70.956h-31.751l-36.607-19.729l-0.07,0.105L89.931,0l-11,27.99l35.849,18.24v24.843L65.41,172.64l5.657,5.342    C71.067,177.994,144.031,81.454,180.82,97.802z M234.587,88.664V62.992l22.841,12.29L234.587,88.664z"/></g><path d="M21.455,13.025c-0.604-3.065-5.861-4.881-7.083-2.583c-1.22-2.299-6.477-0.483-7.081,2.583   C6.501,16.229,2.321,17.11,0,15.439c0,3.622,3.901,3.669,6.315,3.9c5.718-0.25,7.525-2.889,8.057-4.093   c0.532,1.205,2.34,3.843,8.058,4.093c2.416-0.231,6.315-0.278,6.315-3.9C26.423,17.11,22.244,16.229,21.455,13.025z" transform="matrix(2.0873196125030518 0 0 2.0873196125030518 -23 108.99999963372534)" id="L1_12"/><path d="M349.983,17.5c0.888,1.051,0.023,1.95-1.004,1.413c-7.66-4.017-14.667-7.187-20.948-8.624l18.122,12.664l-1.903,2.715   L321.047,9.442c-1.682,0.011-3.305,0.228-4.869,0.642l26.168,18.31l-1.892,2.691L312.5,11.521   c-1.027,0.537-2.008,1.209-2.942,1.985l29.018,20.295l-1.903,2.715l-29.543-20.663c-0.537,0.63-1.074,1.337-1.588,2.067   l29.625,20.732l-1.893,2.703l-29.671-20.744c-0.491,0.742-1.074,1.553-1.752,2.522l29.66,20.744l-1.892,2.715l-29.66-20.744   c-0.596,0.847-1.227,1.757-1.892,2.715l29.66,20.744l-1.903,2.704l-29.672-20.745c-0.607,0.882-1.238,1.769-1.892,2.709   l29.659,20.75l-1.891,2.715l-29.672-20.75c-0.07,0.123-0.141,0.228-0.222,0.338c0,0-0.561,0.788-1.542,2.201l29.66,20.744   l-1.892,2.715l-29.648-20.75c-0.572,0.829-1.202,1.711-1.903,2.715l29.66,20.745l-1.892,2.703l-29.66-20.744   c-0.444,0.648-0.888,1.278-1.378,1.973l29.672,20.745l-1.904,2.703l-29.659-20.745c-0.561,0.812-1.145,1.664-1.764,2.522   l29.672,20.745l-1.892,2.715l-29.672-20.745c-0.619,0.87-1.237,1.781-1.88,2.715l29.648,20.745l-1.892,2.715l-29.672-20.744   c-0.607,0.881-1.237,1.781-1.892,2.715l29.66,20.744l-1.892,2.703l-29.66-20.744c-0.572,0.823-1.168,1.67-1.775,2.522l29.66,20.709   l-1.892,2.715l-29.66-20.75c-0.63,0.899-1.261,1.798-1.892,2.703l29.66,20.756l-1.892,2.703l-29.672-20.745   c-0.514,0.742-1.039,1.495-1.564,2.248l29.648,20.745l-1.892,2.715l-29.66-20.745c-0.572,0.835-1.156,1.688-1.752,2.522   l29.66,20.744l-1.892,2.692l-29.648-20.745c-0.502,0.718-1.004,1.425-1.506,2.154l29.659,20.745l-1.892,2.715l-29.671-20.75   c-0.584,0.84-1.18,1.687-1.764,2.528l29.672,20.745l-1.904,2.715L248.79,99.017c-0.631,0.905-1.249,1.804-1.892,2.709l29.66,20.75   l-1.893,2.709l-29.659-20.744c-0.631,0.911-1.262,1.804-1.892,2.715l29.671,20.75l-1.903,2.709l-29.66-20.745   c-0.595,0.835-1.179,1.688-1.763,2.522l29.672,20.744l-1.915,2.715l-29.66-20.744c-0.643,0.875-1.284,1.769-1.915,2.68   l29.671,20.745l-1.891,2.715l-29.672-20.745c-0.443,0.643-0.911,1.314-1.378,1.974l29.671,20.744l-1.879,2.715l-29.672-20.75   c-0.596,0.853-1.18,1.688-1.764,2.517l29.66,20.744l-1.892,2.704l-29.66-20.745c-0.653,0.917-1.272,1.816-1.915,2.709l29.66,20.75   l-1.892,2.697l-29.66-20.744c-0.631,0.922-1.261,1.815-1.892,2.715l29.66,20.744l-1.881,2.715l-29.671-20.744   c-0.596,0.858-1.191,1.699-1.764,2.522l29.672,20.745l-1.892,2.703l-29.672-20.744c-0.642,0.922-1.272,1.827-1.903,2.715   l29.66,20.744l-1.892,2.715l-29.66-20.745c-0.537,0.776-1.062,1.518-1.576,2.248l29.648,20.744l-1.881,2.715l-29.671-20.744   c-0.607,0.87-1.203,1.734-1.752,2.51l29.66,20.756l-1.892,2.697l-29.66-20.75c-0.724,1.027-1.354,1.933-1.892,2.727l29.66,20.744   l-1.892,2.721l-29.66-20.744c-0.678,0.958-1.238,1.88-1.74,2.814l29.508,20.628l-1.892,2.732l-28.953-20.254   c-0.362,1.08-0.625,2.154-0.765,3.217l27.955,19.559l-1.903,2.698l-26.175-18.31c0.146,1.588,0.502,3.2,1.063,4.776l23.208,16.231   l-1.88,2.721l-18.111-12.658c3.608,5.523,9.143,11.152,15.752,17.143c0.817,0.747-0.163,1.471-1.471,0.98   c-9.715-3.585-35.72-13.137-49.768-1.215L36.412,382.602l-4.163-2.919l155.329-222.099c3.106-4.461,12.097-17.317,23.261-33.28   c1.098-1.553,2.219-3.159,3.328-4.747c27.125-38.803,64.375-92.039,64.375-92.039c5.979-8.548,10.627-15.192,12.811-18.316   C301.546-5.376,332.865-2.649,349.983,17.5z" transform="matrix(0.15682092308998108 0 0 0.15682092308998108 79.00000038286362 97)" id="L1_13"/></defs><g fi:class="KUsePattern" opacity="0.06"><pattern id="pattern_L1_1" width="350" height="350" patternUnits="userSpaceOnUse"><use xlink:href="#L1_1" x="-350" y="-350"/><use xlink:href="#L1_1" x="0" y="-350"/><use xlink:href="#L1_1" x="350" y="-350"/><use xlink:href="#L1_1" x="-350" y="0"/><use xlink:href="#L1_1" x="0" y="0"/><use xlink:href="#L1_1" x="350" y="0"/><use xlink:href="#L1_1" x="-350" y="350"/><use xlink:href="#L1_1" x="0" y="350"/><use xlink:href="#L1_1" x="350" y="350"/></pattern><rect x="0" y="0" width="100%" height="100%" fill="url(#pattern_L1_1)"/></g><g fi:class="KUsePattern" opacity="0.07"><pattern id="pattern_L1_3" width="350" height="350" patternUnits="userSpaceOnUse"><use xlink:href="#L1_3" x="-350" y="-350"/><use xlink:href="#L1_3" x="0" y="-350"/><use xlink:href="#L1_3" x="350" y="-350"/><use xlink:href="#L1_3" x="-350" y="0"/><use xlink:href="#L1_3" x="0" y="0"/><use xlink:href="#L1_3" x="350" y="0"/><use xlink:href="#L1_3" x="-350" y="350"/><use xlink:href="#L1_3" x="0" y="350"/><use xlink:href="#L1_3" x="350" y="350"/></pattern><rect x="0" y="0" width="100%" height="100%" fill="url(#pattern_L1_3)"/></g><g fi:class="KUsePattern" opacity="0.07"><pattern id="pattern_L1_5" width="350" height="350" patternUnits="userSpaceOnUse"><use xlink:href="#L1_5" x="-350" y="-350"/><use xlink:href="#L1_5" x="0" y="-350"/><use xlink:href="#L1_5" x="350" y="-350"/><use xlink:href="#L1_5" x="-350" y="0"/><use xlink:href="#L1_5" x="0" y="0"/><use xlink:href="#L1_5" x="350" y="0"/><use xlink:href="#L1_5" x="-350" y="350"/><use xlink:href="#L1_5" x="0" y="350"/><use xlink:href="#L1_5" x="350" y="350"/></pattern><rect x="0" y="0" width="100%" height="100%" fill="url(#pattern_L1_5)"/></g><g fi:class="KUsePattern" opacity="0.07"><pattern id="pattern_L1_6" width="350" height="350" patternUnits="userSpaceOnUse"><use xlink:href="#L1_6" x="-350" y="-350"/><use xlink:href="#L1_6" x="0" y="-350"/><use xlink:href="#L1_6" x="350" y="-350"/><use xlink:href="#L1_6" x="-350" y="0"/><use xlink:href="#L1_6" x="0" y="0"/><use xlink:href="#L1_6" x="350" y="0"/><use xlink:href="#L1_6" x="-350" y="350"/><use xlink:href="#L1_6" x="0" y="350"/><use xlink:href="#L1_6" x="350" y="350"/></pattern><rect x="0" y="0" width="100%" height="100%" fill="url(#pattern_L1_6)"/></g><g fi:class="KUsePattern" opacity="0.07"><pattern id="pattern_L1_7" width="350" height="350" patternUnits="userSpaceOnUse"><use xlink:href="#L1_7" x="-350" y="-350"/><use xlink:href="#L1_7" x="0" y="-350"/><use xlink:href="#L1_7" x="350" y="-350"/><use xlink:href="#L1_7" x="-350" y="0"/><use xlink:href="#L1_7" x="0" y="0"/><use xlink:href="#L1_7" x="350" y="0"/><use xlink:href="#L1_7" x="-350" y="350"/><use xlink:href="#L1_7" x="0" y="350"/><use xlink:href="#L1_7" x="350" y="350"/></pattern><rect x="0" y="0" width="100%" height="100%" fill="url(#pattern_L1_7)"/></g><g fi:class="KUsePattern" opacity="0.07"><pattern id="pattern_L1_10" width="350" height="350" patternUnits="userSpaceOnUse"><use xlink:href="#L1_10" x="-350" y="-350"/><use xlink:href="#L1_10" x="0" y="-350"/><use xlink:href="#L1_10" x="350" y="-350"/><use xlink:href="#L1_10" x="-350" y="0"/><use xlink:href="#L1_10" x="0" y="0"/><use xlink:href="#L1_10" x="350" y="0"/><use xlink:href="#L1_10" x="-350" y="350"/><use xlink:href="#L1_10" x="0" y="350"/><use xlink:href="#L1_10" x="350" y="350"/></pattern><rect x="0" y="0" width="100%" height="100%" fill="url(#pattern_L1_10)"/></g><g fi:class="KUsePattern" opacity="0.07"><pattern id="pattern_L1_11" width="350" height="350" patternUnits="userSpaceOnUse"><use xlink:href="#L1_11" x="-350" y="-350"/><use xlink:href="#L1_11" x="0" y="-350"/><use xlink:href="#L1_11" x="350" y="-350"/><use xlink:href="#L1_11" x="-350" y="0"/><use xlink:href="#L1_11" x="0" y="0"/><use xlink:href="#L1_11" x="350" y="0"/><use xlink:href="#L1_11" x="-350" y="350"/><use xlink:href="#L1_11" x="0" y="350"/><use xlink:href="#L1_11" x="350" y="350"/></pattern><rect x="0" y="0" width="100%" height="100%" fill="url(#pattern_L1_11)"/></g><g fi:class="KUsePattern" opacity="0.07"><pattern id="pattern_L1_12" width="350" height="350" patternUnits="userSpaceOnUse"><use xlink:href="#L1_12" x="-350" y="-350"/><use xlink:href="#L1_12" x="0" y="-350"/><use xlink:href="#L1_12" x="350" y="-350"/><use xlink:href="#L1_12" x="-350" y="0"/><use xlink:href="#L1_12" x="0" y="0"/><use xlink:href="#L1_12" x="350" y="0"/><use xlink:href="#L1_12" x="-350" y="350"/><use xlink:href="#L1_12" x="0" y="350"/><use xlink:href="#L1_12" x="350" y="350"/></pattern><rect x="0" y="0" width="100%" height="100%" fill="url(#pattern_L1_12)"/></g><g fi:class="KUsePattern" opacity="0.07"><pattern id="pattern_L1_13" width="350" height="350" patternUnits="userSpaceOnUse"><use xlink:href="#L1_13" x="-350" y="-350"/><use xlink:href="#L1_13" x="0" y="-350"/><use xlink:href="#L1_13" x="350" y="-350"/><use xlink:href="#L1_13" x="-350" y="0"/><use xlink:href="#L1_13" x="0" y="0"/><use xlink:href="#L1_13" x="350" y="0"/><use xlink:href="#L1_13" x="-350" y="350"/><use xlink:href="#L1_13" x="0" y="350"/><use xlink:href="#L1_13" x="350" y="350"/></pattern><rect x="0" y="0" width="100%" height="100%" fill="url(#pattern_L1_13)"/></g></svg>